<?xml version="1.0" encoding="UTF-8" standalone="no"?>
<svg
   xmlns:dc="http://purl.org/dc/elements/1.1/"
   xmlns:cc="http://web.resource.org/cc/"
   xmlns:rdf="http://www.w3.org/1999/02/22-rdf-syntax-ns#"
   xmlns:svg="http://www.w3.org/2000/svg"
   xmlns="http://www.w3.org/2000/svg"
   xmlns:sodipodi="http://sodipodi.sourceforge.net/DTD/sodipodi-0.dtd"
   xmlns:inkscape="http://www.inkscape.org/namespaces/inkscape"
   width="638pt"
   height="877pt"
   viewBox="0 0 638 877"
   version="1.1"
   id="svg2295"
   sodipodi:version="0.32"
   inkscape:version="0.44.1"
   sodipodi:docname="metatribbles.svg"
   sodipodi:docbase="/Users/inigosurguy/Desktop">
  <metadata
     id="metadata2680">
    <rdf:RDF>
      <cc:Work
         rdf:about="">
        <dc:format>image/svg+xml</dc:format>
        <dc:type
           rdf:resource="http://purl.org/dc/dcmitype/StillImage" />
      </cc:Work>
    </rdf:RDF>
  </metadata>
  <defs
     id="defs2678" />
  <sodipodi:namedview
     inkscape:window-height="990"
     inkscape:window-width="1291"
     inkscape:pageshadow="2"
     inkscape:pageopacity="0.0"
     guidetolerance="10.0"
     gridtolerance="10.0"
     objecttolerance="10.0"
     borderopacity="1.0"
     bordercolor="#666666"
     pagecolor="#ffffff"
     id="base"
     inkscape:zoom="1.3792474"
     inkscape:cx="398.75"
     inkscape:cy="474.24294"
     inkscape:window-x="66"
     inkscape:window-y="50"
     inkscape:current-layer="svg2295" />
  <g
     id="g3080"
     transform="translate(-211.1296,-225.0503)"
     inkscape:export-filename="/Users/inigosurguy/Desktop/metatribble2.png"
     inkscape:export-xdpi="124.62828"
     inkscape:export-ydpi="124.62828">
    <path
       id="path2301"
       d="M 699.53,651.06 C 699.49,651.83 699.39,653.36 699.34,654.12 C 697.23,652.65 696.53,650.14 695.63,647.88 C 693.95,648.7 692.72,650.49 690.75,650.65 C 689.95,649 689.42,647.24 688.7,645.57 C 687.02,646.22 685.55,647.65 683.67,647.61 C 682.82,646.68 682.42,645.62 682.49,644.43 C 684.79,643.19 687.23,642.27 689.57,641.12 C 690.39,642.9 691.17,644.71 691.92,646.53 C 693.34,645.06 694.77,643.61 696.24,642.2 C 697.51,645.09 698.47,648.09 699.53,651.06 z "
       style="fill:#747779" />
    <path
       id="path2303"
       d="M 691.24,667.29 C 693.84,670.27 695.22,674.04 694.43,678.02 C 693.07,676.25 692,674.3 691.01,672.31 C 690.05,673.8 689.11,675.31 688.03,676.73 C 685.55,675.35 685.4,672.11 684.37,669.75 C 682.58,670.98 680.97,672.92 678.61,672.85 C 678.48,671.6 678.38,670.35 678.31,669.1 C 680.71,667.97 682.99,666.64 685.31,665.36 C 686.22,667.31 687.05,669.3 687.89,671.29 C 689,669.94 690.12,668.61 691.24,667.29 z "
       style="fill:#747779" />
    <path
       id="path2305"
       d="M 682.05,619.61 C 683.72,622.98 683.59,626.78 683.53,630.43 C 682.99,630.2 681.91,629.76 681.37,629.54 C 680.95,627.69 680.6,625.82 680.29,623.97 C 678.04,625.17 675.71,626.23 673.29,627.07 C 672.88,625.21 672.63,623.29 672.73,621.39 C 671.35,622.53 669.98,623.67 668.61,624.83 C 668.2,623.66 666.92,622.36 668.15,621.26 C 670.12,619.08 672.98,618.05 675.52,616.71 C 676.03,618.4 676.49,620.1 676.86,621.84 C 678.54,620.99 680.14,619.81 682.05,619.61 z "
       style="fill:#747779" />
    <path
       id="path2307"
       d="M 675.96,643.09 C 677.06,644.99 676.6,647.21 674.66,648.32 C 674.57,647.43 674.4,645.67 674.31,644.78 C 672.19,641.91 668.88,640.51 665.62,639.38 C 665.2,638.33 664.79,637.27 664.38,636.22 C 668.89,636.87 674.23,638.32 675.96,643.09 z "
       style="fill:#747779" />
    <path
       id="path2309"
       d="M 670.07,690.36 C 672.05,692.39 675.56,694.23 674.35,697.59 C 672.71,697.04 671.51,695.74 670.21,694.66 C 669.14,695.72 668.06,696.78 666.96,697.82 C 665.94,696.3 664.92,694.79 663.91,693.27 C 662.45,694.55 661.01,695.86 659.54,697.13 C 658.81,695.38 658.41,693.54 658.23,691.67 C 658.93,691.56 660.35,691.33 661.06,691.22 C 661.97,690.28 662.9,689.35 663.82,688.44 C 664.93,689.96 666.03,691.49 667.11,693.04 C 668.1,692.14 669.09,691.24 670.07,690.36 z "
       style="fill:#747779" />
    <path
       id="path2311"
       d="M 668.39,648.27 C 670.36,651.84 671.5,656.34 668.95,659.93 C 667.16,661.42 664.5,663.82 662.26,661.73 C 657.4,658.6 658.98,651.82 662.5,648.3 C 664.46,648.16 666.43,648.11 668.39,648.27 z "
       style="fill:#747779" />
    <path
       id="path2313"
       d="M 667.3,651.47 C 667.44,653.04 667.56,654.6 667.69,656.18 C 666.22,655.06 664.73,653.97 663.27,652.83 C 664.61,652.36 665.96,651.91 667.3,651.47 z "
       style="fill:#f6f7f7" />
    <path
       id="path2315"
       d="M 661.49,668.11 C 661.49,668.94 661.5,670.6 661.5,671.43 C 658.33,674.38 657.21,679.68 652.57,680.79 C 649.25,679.63 648.2,675.76 646.43,673.05 C 646.47,671.64 646.53,670.23 646.62,668.83 C 648.93,671.21 649.67,674.68 652.01,677.01 C 654.12,676.98 654.86,674.51 655.93,673.1 C 657.06,670.75 659.41,669.47 661.49,668.11 z "
       style="fill:#747779" />
    <path
       id="path2317"
       d="M 655.58,620.58 C 655.53,621.43 655.44,623.14 655.39,623.99 C 652.37,624.07 650.64,621.65 649.83,619.04 C 648.54,620.27 647.23,621.5 645.93,622.74 C 645.08,621.92 644.23,621.12 643.38,620.31 C 642.66,622.45 641.94,624.65 640.6,626.51 C 639.58,622.52 641.09,618.58 641.96,614.73 C 643.45,615.83 644.32,617.48 645.24,619.04 C 646.94,617.44 648.28,615.52 649.44,613.51 C 650.83,615.9 651.97,618.43 653.48,620.75 C 654.01,620.71 655.06,620.62 655.58,620.58 z "
       style="fill:#747779" />
    <path
       id="path2319"
       d="M 649.48,647.39 C 653.3,648.44 655.19,652.75 654.64,656.49 C 652.36,658.99 649.56,662.05 645.94,661.98 C 639.43,659.25 642.16,646.84 649.48,647.39 z "
       style="fill:#747779" />
    <path
       id="path2321"
       d="M 649.05,650.05 C 650.39,651.28 651.63,652.62 652.79,654.04 C 651.66,654.99 650.52,655.94 649.35,656.87 C 648.63,654.65 648.71,652.32 649.05,650.05 z "
       style="fill:#f6f7f7" />
    <path
       id="path2323"
       d="M 648.08,635.23 C 647.49,639.45 642.37,639.73 639.74,642.32 C 639.38,641.39 639.02,640.46 638.66,639.54 C 641.16,636.94 644.51,635.53 648.08,635.23 z "
       style="fill:#747779" />
    <path
       id="path2325"
       d="M 637.94,685.79 C 640.01,689.51 641.67,693.45 643.3,697.38 C 642.92,698.12 642.51,698.86 642.07,699.59 C 640.55,697.34 639.29,694.93 638.24,692.45 C 636.98,694.04 635.68,695.6 634.36,697.14 C 633.21,695.84 632.09,694.52 631.01,693.17 C 630.62,694.44 629.84,695.33 628.65,695.82 C 625.9,692.65 629.84,689.11 630.95,686.01 C 633.15,687.48 633.1,690.52 634.07,692.76 C 635.36,690.43 636.58,688.06 637.94,685.79 z "
       style="fill:#747779" />
    <path
       id="path2331"
       d="M 631.95,643.58 C 631.45,644.87 631.27,646.64 629.55,646.86 C 627.1,646.28 626.16,643.73 625,641.82 C 624.15,642.59 623.3,643.37 622.39,644.09 C 620.96,642.77 619.94,641.12 618.94,639.47 C 617.92,640.97 616.88,642.46 615.81,643.93 C 614.87,641.71 614.05,639.44 612.82,637.37 C 613.7,636.94 614.58,636.52 615.47,636.11 L 615.53,637.66 C 616.5,636.79 617.45,635.91 618.48,635.14 C 619.9,636.36 620.96,637.92 621.99,639.47 C 622.98,638.68 623.64,636.77 625.19,637.52 C 626.75,639.19 627.79,641.24 628.91,643.22 C 629.67,643.31 631.19,643.49 631.95,643.58 z "
       style="fill:#747779" />
    <path
       id="path2333"
       d="M 624.82,664.95 C 627.16,667.26 629.16,670.18 628.62,673.65 C 627.41,672.45 626.21,671.22 625.05,669.98 C 624.25,671.13 623.43,672.28 622.6,673.44 C 621.69,672.54 620.78,671.66 619.87,670.78 C 618.65,672.57 617.37,674.32 616.05,676.05 C 612.9,674.25 614.85,670.54 615.48,667.87 C 615.89,668.24 616.7,668.98 617.1,669.35 C 617.65,667.84 618.24,666.33 618.84,664.86 C 620.04,666.2 621.15,667.61 622.22,669.06 C 623.07,667.67 623.94,666.3 624.82,664.95 z "
       style="fill:#747779" />
  </g>
  <g
     id="g3155"
     transform="translate(-131.086,-141.5265)"
     inkscape:export-filename="/Users/inigosurguy/Desktop/metatribble4.png"
     inkscape:export-xdpi="120.04315"
     inkscape:export-ydpi="120.04315">
    <path
       id="path2327"
       d="M 634.95,216.17 C 634.48,217.51 634.56,219.3 633.16,220.12 C 630.28,222.15 627.22,223.94 624.51,226.23 C 626.58,226.14 628.64,226.04 630.7,225.94 C 631.7,227.94 631.47,230.22 629.77,231.78 C 627.36,234.56 624.39,236.81 621.24,238.71 C 621.41,237.78 620.82,236.58 621.5,235.8 C 623.74,233.46 626.23,231.38 628.46,229.05 C 625.96,228.95 620.65,229.55 621.51,225.59 C 623.79,222.52 627.23,220.63 630.4,218.62 C 627.12,218.65 622.92,220.15 620.88,216.63 C 625.57,216.45 630.26,215.84 634.95,216.17 z "
       style="fill:#747779" />
    <path
       id="path2329"
       d="M 630.81,187.02 C 631.8,190.34 630.79,193.77 628.61,196.38 C 628.27,194.46 628.19,192.51 628.23,190.57 C 625.91,191.65 623.55,192.63 621.18,193.58 C 620.53,192.62 619.93,191.64 619.38,190.62 C 620.11,187.64 621.71,184.99 622.81,182.15 C 621,183.02 619.21,183.93 617.43,184.87 C 617.12,183.9 616.8,182.94 616.49,181.97 C 619.11,180.74 621.79,179.65 624.61,178.98 C 625.79,182.76 623.79,186.31 622.38,189.71 C 625.12,188.59 627.92,187.61 630.81,187.02 z "
       style="fill:#747779" />
    <path
       id="path2335"
       d="M 602.55,194.75 C 607.28,194.18 611.22,198.31 612.39,202.56 C 613.14,204.28 611.53,205.55 610.67,206.82 C 610.56,205.39 610.47,203.96 610.41,202.53 C 608.93,200.86 607.7,198.63 605.42,197.98 C 603.25,197.72 601.06,197.96 598.88,197.84 C 597.62,195.02 600.68,195.1 602.55,194.75 z "
       style="fill:#747779" />
    <path
       id="path2337"
       d="M 602.29,207.59 C 606.02,210.7 605.86,215.76 605.52,220.16 C 603.45,222.9 601.01,227.97 596.79,226.07 C 590.59,222.76 589.21,212.51 594.96,208.08 C 597.1,206.84 600.41,205.04 602.29,207.59 z "
       style="fill:#747779" />
    <path
       id="path2339"
       d="M 601.16,209.38 C 603.55,212.42 604.15,216.37 602.68,219.98 C 601.26,219.54 599.93,217.66 598.35,218.45 C 597.3,219.81 596.69,221.44 595.9,222.95 C 594.54,220.09 592.2,216.61 594.38,213.52 C 595.49,210.71 598.35,209.57 601.16,209.38 z "
       style="fill:#f6f7f7" />
    <path
       id="path2341"
       d="M 601.49,239.52 C 603.64,244.45 601.46,250.39 596.87,253.08 C 595.58,251.05 594.56,248.86 593.94,246.52 C 592.33,248.64 590.66,250.73 588.74,252.58 C 587.66,249.05 587.16,245.37 586.95,241.69 C 587.29,241.53 587.97,241.21 588.31,241.04 C 589.23,242.92 589.6,244.98 590.01,247.01 C 591.05,245.09 591.99,243.13 592.93,241.17 C 595.15,243.44 596.44,246.36 597.09,249.45 C 599.87,246.45 599.91,242.4 599.41,238.58 C 599.93,238.81 600.97,239.28 601.49,239.52 z "
       style="fill:#747779" />
    <path
       id="path2345"
       d="M 583.47,169.71 C 586.57,173 588.61,177.11 591.65,180.46 C 588.22,181.72 586.78,177.38 584.96,175.34 C 584.89,178.47 583.52,181.27 581.47,183.58 C 580.71,183.59 579.18,183.6 578.41,183.6 C 576.67,181.63 575.07,179.53 573.58,177.36 C 572.9,179.61 572.54,181.93 572.17,184.24 C 568.69,181.64 571.59,177 571.96,173.6 C 575.37,174.81 576.57,179.2 579.28,181.54 C 582.88,178.58 582.62,173.85 583.47,169.71 z "
       style="fill:#747779" />
    <path
       id="path2349"
       d="M 582.41,207.66 C 585.37,212.82 582.53,218.65 580.12,223.4 C 578.19,224.26 576.23,225.06 574.28,225.9 C 569.62,223.96 568.67,218.19 569.84,213.79 C 571.14,210.7 573.3,208 575.59,205.59 C 578.02,204.61 581.24,205.01 582.41,207.66 z "
       style="fill:#747779" />
    <path
       id="path2351"
       d="M 577.2,195.99 C 579.12,193.47 581.77,195.5 582.39,197.91 C 577.28,196.45 572.93,199.81 569.32,202.97 C 567.15,199.83 571.14,197.67 573.35,196.15 C 574.49,195.11 575.9,195.78 577.2,195.99 z "
       style="fill:#747779" />
    <path
       id="path2353"
       d="M 578.47,207.88 C 583.1,208.95 581.29,214.94 580.13,218.13 C 578.23,217.33 576.21,216.68 574.59,215.34 C 573.08,216.72 572.3,218.59 571.56,220.45 C 570.46,215.18 574.02,210.27 578.47,207.88 z "
       style="fill:#f6f7f7" />
    <path
       id="path2357"
       d="M 575.74,242.34 C 574.95,245.46 572.51,247.58 570.07,249.49 C 568.04,247.39 568.82,244.68 569.51,242.19 C 566.71,244.07 563.88,245.89 560.96,247.57 C 560.61,247.04 559.91,245.98 559.57,245.45 C 560.64,242.38 561.1,238.92 563.43,236.48 C 563.68,238.43 563.71,240.39 563.63,242.35 C 565.76,240.85 568.07,239.61 570.59,238.93 C 571.1,240.77 571.51,242.64 571.82,244.54 C 573.11,243.77 574.42,243.03 575.74,242.34 z "
       style="fill:#747779" />
    <path
       id="path2369"
       d="M 556.47,193.05 C 556.69,193.69 557.15,194.96 557.38,195.6 C 556.3,196.26 555.14,196.8 554,197.36 C 554.28,198.6 554.52,199.84 554.74,201.09 C 551.99,203.69 549.11,206.47 548.09,210.26 C 549.03,210.45 550.92,210.84 551.87,211.03 C 550.83,212.99 548.68,213.64 546.95,212.04 C 544.42,208.56 547.6,204.65 549.92,202.05 C 549.15,201.01 548.06,199.92 548.51,198.49 C 550.39,195.74 553.62,194.51 556.47,193.05 z "
       style="fill:#747779" />
    <path
       id="path2379"
       d="M 550.41,233.8 C 550.48,234.45 550.61,235.77 550.68,236.42 C 548.04,236.44 545.41,236.52 542.77,236.6 C 542.42,236.06 541.71,234.98 541.36,234.44 C 542.18,232.88 543.01,231.34 543.87,229.81 C 542.23,229.9 540.22,230.6 539.04,229.01 C 538.43,224.42 542.85,221.58 546.12,219.32 C 546.29,220.01 546.61,221.39 546.77,222.08 C 545.02,223.54 543.31,225.07 541.85,226.83 C 543.31,226.22 544.75,225.59 546.19,224.93 C 548.9,227.56 546.54,230.8 545.16,233.41 C 546.91,233.52 548.66,233.65 550.41,233.8 z "
       style="fill:#747779" />
  </g>
  <g
     id="g3064"
     transform="translate(-63.76876,-302.6914)"
     inkscape:export-filename="/Users/inigosurguy/Desktop/metatribble1.png"
     inkscape:export-xdpi="126.78585"
     inkscape:export-ydpi="126.78585">
    <path
       id="path2371"
       d="M 555.72,613.94 C 557.72,614.82 558.69,618.66 555.44,617.97 C 553.97,616.34 553.06,614.33 552.1,612.39 C 550.68,614.04 549.17,615.61 547.66,617.19 C 547.04,615.69 546.44,614.19 545.86,612.68 C 546.16,610.86 546.41,609.02 546.6,607.19 C 545.62,608.11 544.64,609.04 543.66,609.97 C 543.13,608.92 542.61,607.86 542.1,606.81 C 544,605.43 545.92,603.09 548.54,604.21 C 548.82,606.21 549.11,608.2 549.32,610.22 C 550.27,608.69 551.21,607.17 552.19,605.68 C 553.69,608.29 554.7,611.12 555.72,613.94 z "
       style="fill:#747779" />
    <path
       id="path2377"
       d="M 550.55,629.54 C 552.14,632.42 554.42,635.02 555.02,638.35 C 551.07,637.31 549.93,632.99 548.1,629.88 C 546.84,632.54 545.02,634.87 542.69,636.69 C 541.46,635.58 540.23,634.47 539.02,633.34 C 538.66,634.68 538.63,636.19 537.78,637.37 C 537.1,636.75 536.44,636.13 535.79,635.49 C 536.45,632.57 537.05,629.63 537.91,626.77 C 539.79,628.48 540.95,630.74 542.12,632.96 C 543.79,630.88 545.12,628.56 546.76,626.49 C 548.76,625.98 549.54,628.29 550.55,629.54 z "
       style="fill:#747779" />
    <path
       id="path2387"
       d="M 540.04,654.08 C 541.45,656.68 544.23,658.81 543.73,662.09 C 540.98,660.88 539.45,658.28 538.12,655.74 C 537.87,655.44 537.38,654.83 537.13,654.53 C 536.3,657.03 534.81,659.22 532.83,660.96 C 531.48,658.75 530.37,656.42 529.29,654.08 C 528.18,656.03 526.95,657.93 525.37,659.55 C 523.01,655.98 526.26,652.85 528.19,650.05 C 528.9,648.31 530.7,649.74 531.22,650.78 C 531.99,652.39 532.46,654.13 532.95,655.85 C 533.94,653.94 534.95,652.04 535.97,650.16 C 537.57,651.2 539.11,652.38 540.04,654.08 z "
       style="fill:#747779" />
    <path
       id="path2393"
       d="M 540,591.5 C 539.12,592.89 538.68,595.43 536.45,594.48 C 533.65,592.99 533.39,589.47 532.42,586.79 C 530.66,588.43 528.85,590.05 526.74,591.23 C 526.26,590.71 525.28,589.66 524.8,589.14 C 524.65,589.14 524.35,589.14 524.2,589.14 C 524.3,587.94 524.38,586.74 524.45,585.55 C 523.11,587.14 521.86,588.81 520.64,590.5 C 520.2,589.53 519.74,588.56 519.38,587.56 C 520.63,584.99 523.04,583.25 524.95,581.21 C 526.48,582.71 527.61,584.52 527.95,586.66 C 529.32,585.11 530.7,583.58 532.1,582.07 C 534.77,584.54 535.56,588.13 536.45,591.5 C 537.34,591.5 539.12,591.5 540,591.5 z "
       style="fill:#747779" />
    <path
       id="path2399"
       d="M 522.46,601.44 C 528.27,600.64 536.58,601.99 537.59,609.01 C 534.84,607.82 532.71,605.38 529.7,604.79 C 527.34,604.38 524.92,604.52 522.53,604.46 C 522.51,603.7 522.47,602.19 522.46,601.44 z "
       style="fill:#747779" />
    <path
       id="path2401"
       d="M 528.68,610.75 C 530.48,613.54 533.36,617.07 531.52,620.53 C 530.42,623.81 525.58,624.93 523.3,622.26 C 520.52,620.01 520.94,615.85 521.91,612.82 C 522.88,610.37 525.76,610.11 528,609.92 C 527.06,611.87 526.08,613.83 524.49,615.36 C 526.98,614.86 528.4,616.62 529.62,618.49 C 529.2,615.88 526.79,613.27 528.68,610.75 z "
       style="fill:#747779" />
    <path
       id="path2413"
       d="M 521.97,631.91 C 525.1,634.37 523.48,638.31 522.45,641.41 C 520.99,642.74 519.53,644.06 518.06,645.39 C 515.31,644.35 512.12,643.35 510.74,640.48 C 509.51,637.82 507.97,634.41 509.96,631.73 C 512.04,635.29 512.13,640.83 517.04,641.75 C 519.91,639.17 520.93,635.47 521.97,631.91 z "
       style="fill:#747779" />
    <path
       id="path2419"
       d="M 514.97,616.09 C 515.51,618.68 514.3,621.56 512.02,622.96 C 509.83,624.65 505.9,624.2 504.7,621.49 C 502.4,618.32 503.94,613.9 506.4,611.34 C 509.88,608.32 514.62,612.26 514.97,616.09 z "
       style="fill:#747779" />
    <path
       id="path2423"
       d="M 512.87,586.04 C 512.46,587.15 512.4,588.88 510.73,588.44 C 508.49,587.57 507.23,585.38 505.9,583.52 C 505.42,585.36 504.86,587.29 503.47,588.68 C 500.65,589.21 499.92,585.78 498.45,584.15 C 497.9,586.17 497.54,588.23 497.13,590.3 C 494.3,586.94 496.11,582.64 496.78,578.86 C 499.56,580.21 500.71,583.13 502.15,585.65 C 502.71,583.12 503.28,580.6 503.81,578.08 C 507.06,580.53 508.65,584.99 512.87,586.04 z "
       style="fill:#747779" />
    <path
       id="path2429"
       d="M 504.15,650.36 C 506.35,652.89 511.3,654.84 509.73,658.84 C 508.05,657.54 506.44,656.15 504.92,654.67 C 504.03,655.88 503.14,657.07 502.24,658.27 C 501,657.02 499.83,655.7 498.72,654.34 C 498.2,656.04 497.7,657.75 497.03,659.41 C 495.89,659.42 495.35,658.85 495.42,657.69 C 495.03,654.64 496.44,651.79 497.74,649.15 C 500.22,649.19 500.24,652.24 501.28,653.87 C 502.25,652.71 503.21,651.53 504.15,650.36 z "
       style="fill:#747779" />
    <path
       id="path2439"
       d="M 503.24,602.06 C 504.98,600.86 505.92,603.42 507.08,604.28 C 503.45,605.38 500.59,607.83 498.48,610.93 C 497.93,609.65 497.5,608.32 497.16,606.97 C 499.11,605.25 500.74,603.01 503.24,602.06 z "
       style="fill:#747779" />
    <path
       id="path2445"
       d="M 486.32,635.82 C 489.24,637.23 493.83,639.6 492.71,643.54 C 491.07,642.3 489.47,641.01 487.9,639.69 C 487.05,641.46 486.17,643.22 485.25,644.96 C 483.59,643.37 482.1,641.49 479.87,640.69 C 480.06,641.03 480.45,641.71 480.64,642.04 C 479.98,642.91 479.3,643.79 478.63,644.66 C 478.18,643.53 477.73,642.4 477.31,641.26 C 478.64,639.18 479.79,636.99 481.08,634.89 C 482.13,636.65 483.14,638.43 484.05,640.27 C 484.72,638.76 485.03,636.95 486.32,635.82 z "
       style="fill:#747779" />
    <path
       id="path2447"
       d="M 489.21,595.83 C 490.45,598.26 491.98,600.66 492.44,603.38 C 489.41,604.52 488.85,600.44 488.03,598.46 C 486.78,600.41 485.39,602.27 483.93,604.08 C 482.67,602.91 481.51,601.63 480.28,600.43 C 479.16,601.83 478.14,603.32 477.04,604.76 C 476.52,603.72 475.95,602.71 475.53,601.63 C 476.65,599.28 477.87,596.97 479.22,594.75 C 481.39,595.45 482.08,597.98 483.21,599.71 C 484.15,597.68 484.95,595.58 486.03,593.63 C 487.68,592.65 488.39,594.82 489.21,595.83 z "
       style="fill:#747779" />
    <path
       id="path2449"
       d="M 488.7,624.28 C 488.6,625.78 488.33,627.28 486.44,627.13 C 485.01,626.23 484.01,624.85 482.95,623.57 C 481.65,624.76 480.68,627.13 478.52,626.49 C 477.18,625.5 476.17,624.16 475.02,622.98 C 475.04,623.8 475.07,625.44 475.09,626.26 C 474.79,626.51 474.2,627.02 473.91,627.28 C 473.53,626.79 472.77,625.82 472.38,625.33 C 472.32,622.79 472.72,620.28 473.73,617.95 C 475.59,619.58 477.18,621.47 478.87,623.26 C 480.05,621.65 480.18,619.06 482.16,618.21 C 484.2,620.41 485.29,623.9 488.7,624.28 z "
       style="fill:#747779" />
  </g>
  <g
     id="g3097"
     transform="translate(-222.7302,-111.3651)"
     inkscape:export-filename="/Users/inigosurguy/Desktop/metatribble5.png"
     inkscape:export-xdpi="104.00388"
     inkscape:export-ydpi="104.00388">
    <path
       id="path2343"
       d="M 589.82,497.07 C 590.81,499.35 591.37,501.79 592.12,504.16 C 588.88,504.17 588.5,500.79 587.54,498.42 C 585.12,500.44 583.19,503.42 579.84,503.92 C 579.39,502.67 578.9,501.45 578.39,500.23 C 577.79,498.97 576.94,501.8 576.48,501.76 C 576.48,501.04 576.49,499.59 576.5,498.87 C 577.43,497.87 578.36,496.87 579.28,495.88 C 579.93,497.24 580.53,498.62 581.1,500.02 C 582.97,498.24 584.68,496.16 587.01,494.95 C 588.4,494.55 589.29,496.02 589.82,497.07 z "
       style="fill:#747779" />
    <path
       id="path2347"
       d="M 579.73,456 C 583.43,458.7 585.32,462.95 586.92,467.1 C 583.43,466.87 582.82,462.88 581.27,460.44 C 580.2,462.43 578.85,464.24 577.35,465.94 C 575.74,464.17 574.4,462.19 573.2,460.14 C 572.54,460.99 571.86,461.83 571.15,462.66 C 570.26,462.09 569.39,461.48 568.55,460.85 C 570.17,459.07 571.79,457.29 573.27,455.38 C 574.76,457.36 575.92,459.55 577.05,461.75 C 577.91,459.81 578.79,457.89 579.73,456 z "
       style="fill:#747779" />
    <path
       id="path2355"
       d="M 577.52,521.08 C 577.47,524.71 578.23,529.67 574.55,531.86 C 573.95,530.15 574.18,528.39 574.43,526.66 C 572.92,527.83 571.43,529.6 569.29,528.88 C 568,527.6 567.51,525.79 566.77,524.19 C 565.92,525.19 565.07,526.19 564.21,527.2 C 563.78,526.99 562.92,526.58 562.49,526.38 C 562.5,525.29 562.5,524.2 562.51,523.13 C 564.24,521.93 565.83,520.56 567.4,519.17 C 568.64,521.26 569.61,523.49 570,525.91 C 572.62,524.47 575.08,522.77 577.52,521.08 z "
       style="fill:#747779" />
    <path
       id="path2359"
       d="M 574.37,481.7 C 575.41,485.01 573.54,487.93 571.39,490.25 C 570.69,489.54 570,488.84 569.31,488.13 C 570.5,486.54 571.62,484.9 572.71,483.24 C 570.21,483.41 567.72,483.6 565.22,483.72 C 564.13,481.32 565,479.02 566.36,476.96 C 564.97,476.18 563.79,475.13 562.79,473.9 C 565.46,473.35 568.13,472.81 570.8,472.28 C 571.2,475.45 569.74,478.14 567.67,480.39 C 569.95,480.3 572.85,479.36 574.37,481.7 z "
       style="fill:#747779" />
    <path
       id="path2361"
       d="M 563.23,500.32 C 565.99,503.81 568.18,507.81 569.14,512.18 C 566.16,511.22 565.42,508.12 563.92,505.78 C 563.44,507.86 564.14,510.97 561.27,511.36 C 558.95,509.75 559.01,506.48 556.9,504.76 C 556.98,507.29 557.2,509.83 556.57,512.32 C 552.86,509.5 555.34,504.88 555.98,501.24 C 558.86,502.55 560.17,505.46 561.29,508.22 C 561.38,506.27 561.47,504.32 561.54,502.37 C 562.1,501.68 562.67,501 563.23,500.32 z "
       style="fill:#747779" />
    <path
       id="path2363"
       d="M 563.45,445.31 C 563.63,447.98 564.28,450.58 564.73,453.22 C 562.02,452.02 561.23,449.18 561.17,446.47 C 559.08,448.47 556.89,450.39 554.53,452.08 C 553.26,449.85 553.41,447.3 553.53,444.83 C 552.74,445.08 551.17,445.57 550.39,445.81 C 550.22,445.21 549.87,443.99 549.7,443.38 C 551.28,442.22 553.01,441.31 554.68,440.31 C 555.74,442.14 556.54,444.12 556.79,446.25 C 558.19,444.84 559.68,443.53 561.18,442.24 C 561.95,443.25 562.71,444.27 563.45,445.31 z "
       style="fill:#747779" />
    <path
       id="path2375"
       d="M 554.95,530.08 C 554.53,530.44 553.67,531.14 553.24,531.49 C 550.63,531.66 550.52,527.99 548.81,526.83 C 548.68,527.43 548.42,528.63 548.28,529.23 C 547.52,529.98 546.75,530.73 545.97,531.49 C 545.01,530.75 544.05,530.01 543.09,529.26 C 542.44,530.48 541.75,531.71 541.01,532.9 C 539.69,529.4 540.87,525.69 543.04,522.83 C 543.85,524.5 544.59,526.2 545.3,527.92 C 546.28,525.93 547.17,523.89 548.08,521.88 C 550.97,524.13 551.83,528.05 554.95,530.08 z "
       style="fill:#747779" />
    <path
       id="path2381"
       d="M 550.54,464.63 C 550.53,465.3 550.51,466.64 550.5,467.31 C 546.73,465.14 542.43,464.9 538.19,464.84 C 537.97,462.87 540.06,461.87 541.66,461.59 C 544.87,461.58 547.74,463.24 550.54,464.63 z "
       style="fill:#747779" />
    <path
       id="path2383"
       d="M 546.88,476.07 C 548.18,478.7 550.57,481.84 548.92,484.82 C 547.47,488.2 544.67,490.71 541.59,492.6 C 532.93,489.78 533.82,475.95 541.94,472.91 C 544.25,471.49 545.86,474.42 546.88,476.07 z "
       style="fill:#747779" />
    <path
       id="path2385"
       d="M 543.83,476.03 C 545.06,477.95 546.83,480 546.45,482.45 C 545.84,483.9 545,485.23 544.23,486.6 C 543.26,485.51 542.28,484.42 541.31,483.33 C 540.35,483.72 539.39,484.12 538.43,484.52 C 537.68,480.54 540.36,477.45 543.83,476.03 z "
       style="fill:#f6f7f7" />
    <path
       id="path2391"
       d="M 538.67,501.41 C 542.39,508.07 535.37,514.27 530.16,517.42 C 525.32,515.6 522.44,510.72 522.32,505.67 C 525.63,507.29 525.79,511.63 528.58,513.63 C 532.09,512.8 534.34,509.58 536.39,506.84 C 535.06,504.52 536.89,502.7 538.67,501.41 z "
       style="fill:#747779" />
    <path
       id="path2395"
       d="M 532.98,438.12 C 534.95,441.12 537.9,443.57 539.02,447.05 C 536.71,446.68 535.1,445 533.67,443.3 C 532.59,444.63 531.53,446 530.23,447.14 C 528.76,446.67 527.72,445.5 526.65,444.47 C 525.67,446.19 524.71,447.93 523.52,449.52 C 521.08,449 522.4,446.44 522.94,445.04 C 523.87,442.91 524.86,440.82 525.98,438.8 C 527.09,440.6 528.15,442.43 529.2,444.28 C 530.51,442.26 531.32,439.88 532.98,438.12 z "
       style="fill:#747779" />
    <path
       id="path2409"
       d="M 528.15,478.81 C 530.39,484.84 525.87,491.77 519.56,492.48 C 517.32,492.14 515.27,490.65 514.6,488.43 C 513.79,483.75 514.14,478.3 517.98,474.99 C 521.15,471.29 527.01,474.87 528.15,478.81 z "
       style="fill:#747779" />
    <path
       id="path2411"
       d="M 524.5,476.86 C 525.27,478.63 526.4,480.36 526.44,482.35 C 525.78,484.31 524.45,485.94 523.22,487.58 C 522.37,486.04 521.48,484.53 520.59,483.02 C 519.15,483.8 517.72,484.59 516.29,485.39 C 516.67,482.57 517.88,479.95 519.62,477.72 C 521.26,477.49 522.88,477.2 524.5,476.86 z "
       style="fill:#f6f7f7" />
    <path
       id="path2415"
       d="M 524.07,537.53 C 523.32,538.79 522.52,540.04 521.7,541.27 C 520.2,539.84 518.76,538.34 517.39,536.77 C 516.37,537.96 515.33,539.13 514.26,540.29 C 513.11,539.1 511.99,537.89 510.9,536.64 C 510.04,538.16 509.13,539.65 508.18,541.12 C 507.76,540.62 506.92,539.62 506.51,539.12 C 507.89,536.32 509.26,533.5 511.16,531.01 C 512.19,532.8 513.14,534.62 514.04,536.47 C 515.06,534.71 516.12,532.98 517.23,531.29 C 518.56,533.28 519.75,535.35 520.85,537.47 C 521.66,537.48 523.27,537.52 524.07,537.53 z "
       style="fill:#747779" />
    <path
       id="path2417"
       d="M 519.53,464.47 C 519.52,464.95 519.5,465.89 519.5,466.36 C 515.91,467.27 512.6,468.85 509.42,470.71 C 508.41,469.74 507.99,468.15 509.41,467.33 C 512.13,465.08 515.99,463.29 519.53,464.47 z "
       style="fill:#747779" />
    <path
       id="path2421"
       d="M 508.52,442.93 C 511.95,444.67 512.92,448.86 513.82,452.27 C 510.95,451.09 511.17,447.48 508.73,445.98 C 511.59,448.8 507.18,450.87 505.93,453.08 C 504.68,451.75 503.49,450.37 502.31,448.98 C 501.54,450.33 500.76,451.67 499.97,453.01 C 499.41,452.17 498.89,451.3 498.4,450.42 C 499.28,447.91 500.76,445.67 502.03,443.35 C 503.43,445.12 504.7,446.98 505.96,448.85 C 506.79,446.87 507.54,444.84 508.52,442.93 z "
       style="fill:#747779" />
    <path
       id="path2435"
       d="M 506.26,511.13 C 509.11,514.16 504.43,517.41 502.28,519.35 C 499.18,521.96 496.43,517.13 496.16,514.4 C 494.27,516.36 492.23,518.16 490.15,519.92 C 488.88,518.6 488.3,516.91 488.07,515.13 C 488.61,515.34 489.69,515.77 490.22,515.98 C 492.08,513.97 493.89,511.91 495.63,509.79 C 497.58,511.9 498.88,514.47 499.91,517.12 C 502.13,515.23 504.26,513.24 506.26,511.13 z "
       style="fill:#747779" />
    <path
       id="path2441"
       d="M 499.67,493.72 C 502.75,495.47 506.14,498.26 505.71,502.22 C 504.01,500.76 502.5,499.11 501.01,497.45 C 499.7,498.94 498.36,500.41 497.02,501.89 C 495.79,500.55 494.69,499.12 493.71,497.59 C 492.38,498.69 491.02,499.77 489.62,500.81 C 488.52,498.83 488.34,496.6 488.39,494.39 C 488.9,494.88 489.92,495.86 490.43,496.34 C 491.72,494.62 492.99,492.88 494.27,491.15 C 495.71,493.07 496.55,495.3 496.89,497.67 C 497.81,496.35 498.74,495.03 499.67,493.72 z "
       style="fill:#747779" />
    <path
       id="path2443"
       d="M 496.9,467.38 C 499.98,470.68 501.72,475.04 502.82,479.36 C 500.51,477.84 499.09,475.44 497.88,473.02 C 496.93,474.32 495.98,475.6 495.01,476.89 C 494.17,476.1 493.35,475.29 492.52,474.49 C 492.44,472.04 492.28,469.59 492.24,467.15 C 489.94,468.23 490.22,471.28 489.08,473.24 C 488.36,472.34 487.75,471.38 487.26,470.35 C 488.03,468.19 489.49,466.06 491.64,465.14 C 492.77,465.7 493.59,466.68 494.51,467.52 C 494.51,468.96 494.53,470.41 494.56,471.87 C 495.35,470.37 496.11,468.87 496.9,467.38 z "
       style="fill:#747779" />
    <path
       id="path2455"
       d="M 478.24,457.07 C 480.1,459.79 481.54,462.78 482.45,465.95 C 479.89,465.8 479.01,463.45 478.04,461.49 C 477.1,462.28 476.16,463.07 475.21,463.86 C 474.39,462.84 473.57,461.82 472.75,460.79 C 471.44,462.35 470.12,463.9 468.79,465.45 C 468.32,464.54 467.82,463.64 467.45,462.69 C 468.97,460.34 470.64,458.09 472.39,455.92 C 473.38,457.07 474.24,458.32 475.09,459.57 C 476.13,458.73 477.18,457.89 478.24,457.07 z "
       style="fill:#747779" />
  </g>
  <g
     id="g3120"
     transform="translate(-63.80291,-162.4074)"
     inkscape:export-filename="/Users/inigosurguy/Desktop/metatribble3.png"
     inkscape:export-xdpi="118.94956"
     inkscape:export-ydpi="118.94956">
    <path
       id="path2365"
       d="M 559.42,333.93 C 560.95,337.68 562.54,341.42 563.84,345.26 C 561.43,343.87 559.71,341.65 558.94,338.98 C 556.69,340.68 554.75,343.62 551.68,343.59 C 550.48,342.06 549.8,340.22 549.05,338.45 C 548.02,339.45 546.98,340.44 545.93,341.44 C 545.54,340.48 545.14,339.54 544.74,338.59 C 546.06,337.19 547.14,335.37 549.01,334.66 C 550.6,336.11 551.51,338.08 552.69,339.84 C 555.17,338.15 557.23,335.95 559.42,333.93 z "
       style="fill:#747779" />
    <path
       id="path2367"
       d="M 563.05,382.74 C 562.45,383.57 562.16,385.9 560.62,385.22 C 558.9,384.99 557.88,383.44 556.66,382.39 C 556.26,381.39 555.84,380.41 555.42,379.42 C 554.7,380.38 553.83,381.13 552.8,381.67 C 551.87,381 551.03,380.21 550.08,379.55 C 549.48,380.16 548.28,381.36 547.68,381.97 C 544.7,378.99 548.63,376.15 550.19,373.62 C 551.08,374.85 551.92,376.11 552.77,377.37 C 553.54,375.82 554.32,374.26 555.08,372.71 C 557.45,375.4 557.97,379.04 559.7,382.06 C 560.53,382.23 562.21,382.57 563.05,382.74 z "
       style="fill:#747779" />
    <path
       id="path2373"
       d="M 551.13,357.31 C 553.58,359.6 555.42,362.44 556.6,365.58 C 554.38,365.51 553.31,363.55 552.15,361.98 C 551.32,363.57 550.5,365.22 549.2,366.5 C 546.99,367.02 546.18,364.29 544.85,363.07 C 544.89,364.91 544.09,365.82 542.43,365.82 C 542.05,362.83 542.59,359.8 544.28,357.28 C 545.65,359.25 546.89,361.31 548.1,363.38 C 549.09,361.35 550.08,359.31 551.13,357.31 z "
       style="fill:#747779" />
    <path
       id="path2389"
       d="M 539.03,324.24 C 539.74,325.44 540.44,326.66 541.05,327.92 C 538.31,327.95 537.14,325.49 535.99,323.48 C 534.82,324.53 533.68,325.63 532.35,326.5 C 530.14,326.89 529.63,324.05 528.42,322.8 C 527.26,323.93 526.11,325.11 524.73,326 C 523.33,325.22 522.98,323.54 522.2,322.27 C 525.41,322.53 526.86,319.54 528.53,317.39 C 529.6,319.26 530.57,321.19 531.81,322.96 C 533.13,321.34 534.28,319.6 535.59,317.99 C 537.1,319.85 538.05,322.07 539.03,324.24 z "
       style="fill:#747779" />
    <path
       id="path2397"
       d="M 535.31,381.77 C 536.04,384.36 536.71,386.96 537.24,389.59 C 536.15,388.92 535.08,388.24 534,387.55 C 532.88,388.6 531.78,389.68 530.53,390.59 C 529.23,389.72 528.1,388.65 526.95,387.59 C 526.12,389.58 525.15,391.51 524.1,393.4 C 523.76,392.82 523.06,391.66 522.72,391.07 C 523.47,387.88 524.82,384.85 525.85,381.75 C 527.4,383.51 528.81,385.37 530.2,387.26 C 531.54,385.17 532.78,383.01 533.93,380.81 C 534.28,381.05 534.97,381.53 535.31,381.77 z "
       style="fill:#747779" />
    <path
       id="path2403"
       d="M 530.52,358.75 C 530.38,361.9 531.27,365.43 529.26,368.18 C 527.54,370.48 525.44,372.81 522.56,373.58 C 520.6,373.96 518.24,373.26 517.35,371.34 C 514.55,366.54 515.78,360.65 517.87,355.85 C 519.23,353.36 521.19,349.8 524.54,350.44 C 527.06,352.78 528.65,355.91 530.52,358.75 z "
       style="fill:#747779" />
    <path
       id="path2405"
       d="M 528.23,342.7 C 528.7,344.04 528.88,345.43 528.76,346.86 C 526.81,345.38 525.76,342.81 523.48,341.8 C 521.45,341.94 519.48,343.31 517.44,342.68 C 516.78,340.53 518.9,339.7 520.5,339.06 C 523.55,337.82 526.8,340.05 528.23,342.7 z "
       style="fill:#747779" />
    <path
       id="path2407"
       d="M 522.71,353.74 C 524.79,355.11 527.25,356.64 527.77,359.29 C 528.76,362.17 527.4,365.01 526.29,367.62 C 525.26,366.45 524.78,364.38 522.99,364.15 C 521.45,363.99 519.9,364.17 518.35,364.21 C 519.06,360.45 520.46,356.84 522.71,353.74 z "
       style="fill:#f6f7f7" />
    <path
       id="path2425"
       d="M 506.24,350.13 C 510.23,353.84 511.49,360.22 509.03,365.11 C 507.99,367.67 506,369.62 504.23,371.68 C 501.84,372.01 498.64,373.13 497.06,370.57 C 494.37,366.93 495.62,362.12 497.24,358.31 C 498.4,354.85 501.17,352.37 503.88,350.09 C 504.47,350.1 505.65,350.12 506.24,350.13 z "
       style="fill:#747779" />
    <path
       id="path2427"
       d="M 501.97,316.92 C 504.85,320.03 508.68,322.9 509.93,327.04 C 507.52,326.16 505.57,324.48 503.96,322.53 C 502.97,324.59 501.81,326.96 499.51,327.79 C 497.92,328.23 497.06,326.45 495.99,325.66 C 495.17,326.45 494.68,327.83 493.33,327.84 C 492.7,324.99 493.27,321.9 494.61,319.34 C 497.34,319.43 497.39,323.76 498.65,325.73 C 499.25,327.2 499.69,324.13 499.9,324.17 C 501.19,321.95 501.58,319.41 501.97,316.92 z "
       style="fill:#747779" />
    <path
       id="path2431"
       d="M 499.44,339.83 C 502.41,339.03 507.4,339.85 507.3,343.76 C 502.77,341.48 496.08,342.7 495.03,348.38 C 494.6,348.08 493.72,347.47 493.28,347.17 C 493.03,343.46 495.92,340.47 499.44,339.83 z "
       style="fill:#747779" />
    <path
       id="path2433"
       d="M 505.83,352.53 C 508.63,356.29 508.41,361.85 505.71,365.6 C 504.11,363.84 502.57,361.49 499.85,362.23 C 499.06,362.95 498.91,364.89 497.79,365.12 C 498.61,360.15 501.64,355.46 505.83,352.53 z "
       style="fill:#f6f7f7" />
    <path
       id="path2437"
       d="M 500.95,386.85 C 502.8,389.69 504.49,392.64 506.45,395.42 C 503.96,397.48 502.08,393.55 501.06,391.77 C 499.71,392.39 500.14,393.85 500.17,395.03 C 499.51,396.07 498.79,397.07 498,398.03 C 496.71,396.17 495.62,394.19 494.57,392.2 C 494.54,393.86 494.48,395.52 494.39,397.18 C 491.43,395.22 491.94,390.78 494.65,388.84 C 496.41,389.77 497.24,391.64 498.25,393.25 C 499.12,391.1 500,388.95 500.95,386.85 z "
       style="fill:#747779" />
    <path
       id="path2451"
       d="M 485.56,373.62 C 486.39,378.51 482.59,382.38 479.16,385.22 C 477.4,386.51 475.74,384.7 474.5,383.61 C 474.45,382.73 474.36,380.97 474.31,380.1 C 472.66,381.93 471.05,383.8 469.34,385.59 C 468.98,384.36 468.64,383.14 468.31,381.91 C 470.21,379.87 471.86,377.62 473.42,375.32 C 475.7,377.18 476.68,379.96 477.08,382.79 C 480.34,380.14 482.95,376.87 485.56,373.62 z "
       style="fill:#747779" />
    <path
       id="path2459"
       d="M 476.19,334.2 C 477.63,337.41 479.25,340.62 479.73,344.16 C 478.08,342.9 477.06,341.12 476.17,339.29 C 474.97,340.77 473.75,342.22 472.52,343.67 C 471.21,342.12 469.99,340.5 468.91,338.78 C 467.66,339.92 466.71,341.85 464.74,341.69 C 464.27,340.81 463.82,339.92 463.39,339.03 C 465.64,337.73 467.4,335.82 468.71,333.59 C 469.95,335.59 471.05,337.68 472.09,339.79 C 473.5,337.96 474.86,336.08 476.19,334.2 z "
       style="fill:#747779" />
    <path
       id="path2461"
       d="M 476.97,361.99 C 477.86,363.23 478.6,364.57 479.04,366.05 C 476.6,365.41 474.95,363.58 473.82,361.43 C 472.7,362.68 471.55,363.91 470.4,365.13 C 469.31,364.21 468.25,363.25 467.1,362.4 C 465.84,363.47 464.78,364.74 463.64,365.95 C 462.82,365.05 462.01,364.14 461.21,363.23 C 463.33,361.08 465.36,358.84 467.26,356.51 C 468.26,357.96 469.24,359.42 470.21,360.89 C 471.15,359.26 472.1,357.64 473.05,356.02 C 474.6,357.83 475.84,359.88 476.97,361.99 z "
       style="fill:#747779" />
  </g>
  <g
     id="g3138"
     transform="translate(-141.5265,-142.6865)"
     inkscape:export-filename="/Users/inigosurguy/Desktop/metatribble7.png"
     inkscape:export-xdpi="118.27778"
     inkscape:export-ydpi="118.27778">
    <path
       id="path2453"
       d="M 481.56,198.58 C 484.73,198.38 485.61,202.77 483.59,204.59 C 480.99,207.37 479.03,210.68 477.88,214.32 C 477.26,213.14 476.01,211.98 476.51,210.5 C 477.46,206.85 480.09,204.03 482.49,201.25 C 478.23,201.96 474,205.69 469.68,203.55 C 469.45,202.99 468.98,201.87 468.75,201.32 C 470.05,198.51 471.67,195.88 473.35,193.3 C 471.91,194.04 470.47,194.8 469.03,195.57 C 468.68,195.45 467.98,195.21 467.62,195.09 C 470.1,192.45 472.63,189.19 476.62,189.17 C 477.48,193.94 473.95,197.47 471.85,201.32 C 475.08,200.39 478.19,198.95 481.56,198.58 z "
       style="fill:#747779" />
    <path
       id="path2457"
       d="M 481.21,264.87 C 482.29,266.53 481.33,268.69 480.34,270.18 C 478.2,273.31 475.79,276.48 472.46,278.42 C 471.3,278.17 470.73,277.12 470.09,276.24 C 473.7,273.94 476.32,270.54 478.67,267.04 C 476.85,266.34 474.73,265.92 473.52,264.23 C 472.77,260.78 476.08,258.49 477.43,255.68 C 476.46,254.53 475.2,253.67 474.17,252.59 C 476.24,252.22 479.74,250.23 480.49,253.48 C 481.18,257.32 478.12,260.26 476.26,263.25 C 477.92,263.68 480.17,263.16 481.21,264.87 z "
       style="fill:#747779" />
    <path
       id="path2463"
       d="M 468.65,228.05 C 469.25,229.86 470.66,231.73 469.88,233.71 C 468.55,237.98 466.43,241.96 464.28,245.86 C 463.64,245.16 462.99,244.45 462.34,243.74 C 464.11,239.58 466.19,235.54 467.69,231.27 C 464.18,232.78 460.91,234.76 457.63,236.69 C 456.95,235.79 456.26,234.89 455.58,233.98 C 457.11,230.6 459.14,227.48 460.78,224.16 C 458.24,225.16 455.72,226.23 453.09,227.03 C 453.15,223.09 457.48,221.86 460.61,221.21 C 462.79,220.6 463.63,222.78 463.58,224.56 C 463.07,226.79 461.9,228.81 460.95,230.88 C 463.37,229.57 465.92,228.5 468.65,228.05 z "
       style="fill:#747779" />
    <path
       id="path2465"
       d="M 460.66,279.38 C 461.08,283.09 458.44,286.76 454.55,286.8 C 451.65,287.21 449.81,284.64 447.98,282.86 C 446.74,284.42 445.48,285.97 444.21,287.51 C 443.54,287.51 442.18,287.52 441.5,287.52 C 440.67,284.48 440.08,281.37 438.79,278.48 C 439.18,278.26 439.96,277.81 440.35,277.59 C 441.04,278.69 441.72,279.79 442.41,280.89 C 442.49,281.57 442.66,282.93 442.74,283.61 C 444.12,281.9 445.43,280.15 446.73,278.39 C 448.95,280.42 451.08,282.54 453.44,284.41 C 455.37,283.33 457.22,282.11 458.85,280.62 C 459.3,280.31 460.21,279.69 460.66,279.38 z "
       style="fill:#747779" />
    <path
       id="path2467"
       d="M 451.53,188.09 C 455.84,188.65 454.96,194.27 455.7,197.37 C 455.16,197.12 454.1,196.6 453.57,196.34 C 452.56,197.38 451.54,198.42 450.53,199.47 C 448.55,198.68 446.47,197.55 445.83,195.35 C 445.22,194.46 445.45,192.4 443.92,192.71 C 444.34,195.74 444.75,198.81 444.36,201.88 C 440.64,198.42 441.3,193.11 441.75,188.54 C 442.19,188.48 443.06,188.34 443.49,188.28 C 445.91,190.54 447.09,193.74 448.81,196.49 C 450.08,195.1 451.31,193.67 452.5,192.2 C 452.16,190.83 451.85,189.46 451.53,188.09 z "
       style="fill:#747779" />
    <path
       id="path2469"
       d="M 440.16,236.68 C 443.17,238.47 444.19,242.88 441.66,245.53 C 438.73,248.74 435.17,253.02 430.28,251.8 C 426.92,246.23 428.19,238.4 432.88,233.95 C 433.56,234.85 434.23,235.75 434.89,236.65 C 436.64,236.54 438.45,236.12 440.16,236.68 z "
       style="fill:#747779" />
    <path
       id="path2471"
       d="M 439.86,239.16 C 439.83,242.12 438.37,244.95 435.75,246.43 C 434.37,245.72 432.98,245 431.49,244.5 C 433.59,241.78 436.31,239.5 439.86,239.16 z "
       style="fill:#f6f7f7" />
    <path
       id="path2473"
       d="M 437.54,255.41 C 438.36,256.34 439.1,257.34 439.71,258.42 C 437.1,262.65 432.68,265.3 428.47,267.71 C 424.94,269.62 419.55,269.47 417.25,265.75 C 415.61,263.17 414.54,260.27 413.58,257.37 C 417.59,258.06 417.57,262.79 419.9,265.34 C 423.73,266.91 427.48,264.31 430.57,262.3 C 433.43,260.57 434.89,257.38 437.54,255.41 z "
       style="fill:#747779" />
    <path
       id="path2475"
       d="M 432.5,217.58 C 436.3,221.47 432.3,226.6 431.97,231.07 C 431.13,230.05 430.31,229.02 429.49,227.98 C 429.97,226.37 430.4,224.74 430.77,223.11 C 427.53,225.29 425,228.51 421.5,230.26 C 418.68,230.24 418.38,226.46 418.27,224.3 C 417.26,226.18 415.31,229.2 413.33,226.37 C 415.1,223.31 417.32,220.41 420.19,218.32 C 422.74,220.28 421.12,223.93 421.41,226.67 C 424.95,223.46 428.6,220.36 432.5,217.58 z "
       style="fill:#747779" />
    <path
       id="path2477"
       d="M 425.95,242.31 C 427.72,245.76 424.83,249.23 422.74,251.78 C 420.68,254.26 417.3,253.44 414.49,253.53 C 412.16,248.09 411.04,241.32 414.56,236.13 C 415.11,236.4 416.2,236.93 416.75,237.19 C 420.55,236.54 424.57,238.66 425.95,242.31 z "
       style="fill:#747779" />
    <path
       id="path2479"
       d="M 422.37,241.42 C 425.04,244.05 421.49,247.15 420.2,249.56 C 419.41,247.17 417.63,245.39 415.11,244.89 C 415.29,243.77 415.45,242.65 415.61,241.54 C 417.72,240.53 420.62,238.99 422.37,241.42 z "
       style="fill:#f6f7f7" />
    <path
       id="path2481"
       d="M 424.3,279.88 C 424.15,284.24 420.03,286.3 416.47,287.6 C 414.42,285.39 413.01,282.71 413.17,279.62 C 409.86,282.68 407.53,286.84 403.59,289.17 C 402.89,288.06 402.28,286.9 401.66,285.74 C 402.19,283.37 402.4,280.95 402.84,278.57 C 405.59,277.09 405.09,281.58 405.42,283.12 C 407.99,280.63 409.82,277.18 413.12,275.58 C 415.77,277.76 416.23,281.33 416.79,284.49 C 419.24,282.86 421.72,281.29 424.3,279.88 z "
       style="fill:#747779" />
    <path
       id="path2483"
       d="M 407.31,183.76 C 412.16,186.72 412.53,193.13 414.84,197.87 C 413.54,196.86 412.29,195.79 411.06,194.69 C 410.15,196.05 409.63,198.45 407.46,197.65 C 404.62,196.73 403.24,193.62 401.4,191.46 C 402.06,195.04 402.92,198.63 402.43,202.29 C 399.11,198.16 399.23,192.62 397.8,187.75 C 398.04,187.39 398.5,186.66 398.74,186.3 C 402.18,188.69 404.68,192.07 407.23,195.33 C 409.6,191.72 407.66,187.61 407.31,183.76 z "
       style="fill:#747779" />
    <path
       id="path2485"
       d="M 392.87,219.36 C 394.52,220.31 396.19,221.24 397.6,222.52 C 395.62,222.65 393.65,222.33 391.74,221.8 C 391.34,222.32 390.52,223.36 390.11,223.87 C 386.44,222.83 383.33,220.56 380.22,218.43 C 381.29,223.29 385.19,226.42 388.29,229.98 C 381.34,229.26 378.86,221.55 377.14,215.86 C 381.6,215.47 384.57,219.16 388.39,220.65 C 388.65,220.4 389.15,219.91 389.4,219.67 C 388.72,217.41 387.81,215.23 387.1,212.98 C 390.5,213.14 392.46,216.31 392.87,219.36 z "
       style="fill:#747779" />
    <path
       id="path2487"
       d="M 392.48,248.16 C 394.2,251.16 390.12,252.33 388.49,254.09 C 389.09,254.49 390.3,255.29 390.9,255.69 C 388.83,260.28 385.41,264.09 383.22,268.62 C 385.72,267.81 388.18,266.89 390.74,266.29 C 389.74,267.78 388.75,269.35 387.27,270.42 C 385.35,270.41 383.33,269.49 381.77,271.23 C 381.4,270.49 380.66,269.03 380.29,268.3 C 381.47,265.53 382.86,262.86 384.55,260.37 C 383.52,259.49 382.41,258.68 381.6,257.57 C 384.12,253.57 387.78,249.44 392.48,248.16 z "
       style="fill:#747779" />
  </g>
  <g
     id="g3229"
     transform="translate(-42.92196,-220.4101)"
     inkscape:export-filename="/Users/inigosurguy/Desktop/metatribble8.png"
     inkscape:export-xdpi="118.27778"
     inkscape:export-ydpi="118.27778">
    <path
       id="path2491"
       d="M 245.85,642.28 C 245.56,644.01 245.15,645.73 244.59,647.41 C 244.2,645.53 242.94,644.01 241.63,645.99 C 240.77,644.35 240.35,642.53 240.1,640.71 C 238.35,642.64 236.53,644.53 234.5,646.19 C 233.75,643.04 231.35,638.6 234.24,636.03 C 234.96,637.49 235.53,639.03 236.06,640.58 C 237.27,638.49 238.49,636.4 239.84,634.41 C 241.52,637.01 242.74,639.92 242.76,643.07 C 243.54,642.88 245.08,642.48 245.85,642.28 z "
       style="fill:#747779" />
    <path
       id="path2493"
       d="M 232.39,588.07 C 235.25,592.1 234.34,597.33 234.45,601.97 C 232.21,599.79 231.61,596.67 231.34,593.69 C 229.85,594.66 228.38,595.75 226.65,596.32 C 224.46,594.93 223.68,592.33 222.92,590.01 C 221.49,591.86 219.93,593.63 218.04,595.05 C 217.66,594.4 216.88,593.12 216.5,592.47 C 217.2,591.23 217.89,589.99 218.57,588.75 C 219.95,587.92 221.28,587.01 222.69,586.25 C 223.65,586.91 224.5,587.7 225.36,588.46 C 225.67,589.92 225.99,591.37 226.34,592.82 C 228.51,591.44 230.53,589.83 232.39,588.07 z "
       style="fill:#747779" />
    <path
       id="path2495"
       d="M 231.63,623.24 C 233.61,624.54 231.48,626.62 231,628.2 C 229.26,624.72 226.54,621.68 225.95,617.71 C 224.13,619.18 222.22,620.55 220.29,621.89 C 218.8,619.42 218.16,616.61 217.8,613.78 C 216.56,614.84 215.73,617.2 213.74,616.54 C 213.64,615.89 213.43,614.61 213.32,613.96 C 214.93,612.24 216.45,610.45 218,608.7 C 220.34,611.07 220.88,614.27 220.76,617.48 C 223.04,615.8 224.69,613.49 226.33,611.24 C 228.8,614.95 228.16,620.17 231.63,623.24 z "
       style="fill:#747779" />
    <path
       id="path2497"
       d="M 217.72,639.03 C 220.17,641.95 223.01,645.71 222.35,649.74 C 221.07,648.7 219.84,647.59 218.64,646.45 C 218.25,645.18 217.81,643.93 217.38,642.68 C 215.52,644.15 213.62,645.57 211.67,646.92 C 210.8,645.49 209.96,644.05 209.15,642.58 C 207.48,643.81 205.62,644.7 203.55,645.01 C 202.46,643.15 201.36,641.25 201.09,639.06 C 202.45,639.62 203.69,640.4 205.06,640.9 C 206.91,639.96 208.19,638.26 209.75,636.95 C 211.42,638.26 211.65,640.38 211.9,642.34 C 213.81,641.34 215.43,638.8 217.72,639.03 z "
       style="fill:#747779" />
    <path
       id="path2499"
       d="M 214.37,655.87 C 216.33,660.1 216.67,664.79 217.15,669.36 C 216.84,669.82 216.2,670.74 215.88,671.19 C 214.58,668.67 213.81,665.94 213.36,663.15 C 211.8,665.33 210.05,667.61 207.45,668.6 C 204.82,667.89 204.21,664.61 203.12,662.45 C 201.99,664.59 200.75,666.71 199.09,668.51 C 195.47,668.39 196.63,662.98 196.37,660.39 C 197.35,661.35 198.31,662.34 199.25,663.33 C 200.49,660.83 201.67,658.3 202.94,655.83 C 205.35,658.27 206.23,661.62 206.99,664.86 C 210.4,662.69 211.61,658.65 214.37,655.87 z "
       style="fill:#747779" />
    <path
       id="path2501"
       d="M 202.88,594.41 C 204.13,595.64 205.35,596.99 204.6,598.9 C 200.81,599.33 200.49,595.13 199.51,592.52 C 197.64,594.12 195.69,595.69 193.39,596.66 C 191.98,595.1 191.57,593 191.25,590.99 C 190.04,592.23 188.72,593.38 187.19,594.24 C 187.07,590.71 189.74,588.37 192.08,586.2 C 192.43,586.8 193.13,588.01 193.48,588.61 C 193.6,590 193.72,591.39 193.84,592.79 C 196.22,591.11 198.34,589.1 200.39,587.04 C 201.51,589.39 202.39,591.85 202.88,594.41 z "
       style="fill:#747779" />
    <path
       id="path2503"
       d="M 192.44,612.05 C 196.55,613.95 201.76,615.91 202.7,620.95 C 198.78,619.25 195.18,616.9 191.47,614.8 C 189.58,614.36 190.52,610.81 192.44,612.05 z "
       style="fill:#747779" />
    <path
       id="path2505"
       d="M 195.1,626.89 C 196.15,630.03 195.24,634.4 192.16,636.07 C 190.19,637.58 188.17,635.33 186.66,634.16 C 183.47,631.18 184.96,626.21 187.01,623.03 C 190.1,620.15 194.65,623.23 195.1,626.89 z "
       style="fill:#747779" />
    <path
       id="path2507"
       d="M 194.49,678.54 C 194.68,680.65 194.91,682.76 195.01,684.88 C 193.26,683.31 192.73,680.96 191.98,678.84 C 190.11,681.28 188.41,684.08 185.59,685.56 C 182.85,684.31 182.32,681.17 180.99,678.8 C 180.74,681.7 179.02,684.07 177.36,686.34 C 176.52,685.28 174.85,684.32 175.58,682.72 C 177.34,680.3 179.16,677.92 180.85,675.45 C 182.98,677.06 184.48,679.29 185.23,681.87 C 187.04,679.81 188.62,677.5 190.76,675.77 C 192.7,674.84 193.38,677.48 194.49,678.54 z "
       style="fill:#747779" />
    <path
       id="path2509"
       d="M 189.48,644.32 C 190.28,649.02 186.34,652.91 182.47,654.85 C 178.63,654.54 175.8,651.41 173.5,648.61 C 172.32,647.6 172.13,645.9 173.33,644.82 C 176.03,646.79 177.95,650.07 181.32,650.96 C 184.62,649.62 186.72,646.45 189.48,644.32 z "
       style="fill:#747779" />
    <path
       id="path2511"
       d="M 175.43,621.34 C 178.37,622.52 180.52,624.75 181.58,627.73 C 180.82,627.79 179.3,627.91 178.54,627.97 C 178.01,626.84 177.47,625.71 176.92,624.59 C 175.95,625.51 174.83,626.26 173.78,627.09 C 175.32,626.67 177.73,626.64 177.13,628.95 C 176.71,631.26 179.37,632.45 181.27,632.78 C 179.74,634.8 178.02,636.93 175.47,637.68 C 168.23,635.47 168.93,624.17 175.43,621.34 z "
       style="fill:#747779" />
    <path
       id="path2513"
       d="M 180.45,628.81 C 182.6,630.27 178.03,630.81 179.69,628.82 L 180.45,628.81 z "
       style="fill:#747779" />
    <path
       id="path2515"
       d="M 179.5,592.88 C 179.5,593.71 179.51,595.35 179.52,596.18 C 176.39,594.6 175.01,591.26 173.24,588.45 C 172.68,591.71 171.79,595.12 169.25,597.44 C 165.9,599.15 164.82,594.22 163.2,592.34 C 162.83,594.31 162.5,596.29 162.11,598.27 C 158.58,595.33 160.99,590.04 162.98,586.83 C 164.69,589.35 166.08,592.06 167.39,594.81 C 170.07,592.01 170.42,588.09 171.73,584.63 C 172.11,584.59 172.88,584.5 173.26,584.46 C 175.68,587.01 177.04,590.35 179.5,592.88 z "
       style="fill:#747779" />
    <path
       id="path2517"
       d="M 167.99,659.36 C 170.79,661.97 171.8,666.32 175.58,667.8 C 175.53,668.5 175.41,669.9 175.35,670.6 C 171.51,670.63 170,666.79 168.23,664.06 C 167.02,665.47 165.77,666.88 164.31,668.06 C 162.73,667.7 161.93,666.24 160.95,665.1 C 160.03,666.13 158.65,670.14 157.19,667.79 C 154.85,664.7 158.79,662.17 160.69,660.21 C 161.96,661.07 162.8,662.39 163.86,663.48 C 165.36,662.22 166.64,660.74 167.99,659.36 z "
       style="fill:#747779" />
    <path
       id="path2519"
       d="M 172.99,612.02 C 172.88,615.48 169.33,616.68 167.05,618.54 C 166.57,618.16 165.6,617.41 165.12,617.03 C 167.16,614.57 169.8,612.62 172.99,612.02 z "
       style="fill:#747779" />
    <path
       id="path2521"
       d="M 162.48,681.45 C 165.31,681.98 166.81,684.56 167.25,687.19 C 165.43,686.37 163.74,685.2 161.77,684.77 C 160.04,685.5 158.75,687.71 156.77,687.51 C 155.21,686.12 154.28,684.21 153.08,682.54 C 153.08,682.1 153.07,681.21 153.07,680.77 C 152.95,684.18 151.2,687.03 149.18,689.68 C 148.21,688.67 147.27,687.63 146.3,686.63 C 147.1,684.32 147.9,682 149.04,679.84 C 147.47,682.74 150.75,683.12 151.27,681.58 C 151.95,680.01 152.6,678.45 153.33,676.93 C 154.82,679.03 156.05,681.3 156.99,683.7 C 158.65,682.68 160.32,680.34 162.48,681.45 z "
       style="fill:#747779" />
    <path
       id="path2527"
       d="M 152.94,635.64 C 156.43,637.73 159.19,641.44 158.64,645.7 C 158.18,645.37 157.26,644.72 156.8,644.39 C 155.79,642.72 154.68,641.1 153.52,639.53 C 151.69,641.02 149.73,642.35 147.65,643.5 C 146.74,642.17 145.85,640.83 144.99,639.46 C 143.4,641.25 141.75,642.97 140.01,644.61 C 138.25,642.62 138.38,639.98 138.47,637.5 C 139.07,636.86 139.67,636.23 140.25,635.59 C 140.44,636.41 140.81,638.04 141,638.85 C 142.29,637.01 143.41,635.06 144.8,633.3 C 147.22,633.73 147,637.37 147.95,639.14 C 149.61,637.96 151.26,636.78 152.94,635.64 z "
       style="fill:#747779" />
    <path
       id="path2535"
       d="M 146.35,585.17 C 149.36,587.85 149.86,591.92 149.88,595.72 C 148.49,594.43 147.51,592.8 146.78,591.06 C 145.13,592.44 143.64,594.19 141.54,594.9 C 139.39,594.34 139.53,591.58 138.7,589.99 C 137.46,592.06 136.18,594.12 134.92,596.18 C 134.46,596.01 133.55,595.68 133.09,595.51 C 133.6,590.76 137.16,587.24 139.19,583.11 C 140.86,585.36 141.69,588.02 142.03,590.78 C 143.52,588.94 144.97,587.08 146.35,585.17 z "
       style="fill:#747779" />
    <path
       id="path2537"
       d="M 141.28,653.42 C 143.82,658.09 147.11,662.26 150.19,666.56 C 150.37,667.21 150.74,668.5 150.93,669.15 C 148.39,668.16 146.37,666.32 144.89,664.06 C 144.51,664.29 143.74,664.73 143.36,664.96 C 142,662.82 141.28,660.39 141.07,657.87 C 139.77,659.67 138.43,661.44 137.05,663.19 C 135.9,661.86 135.22,660.26 134.79,658.57 C 137.79,657.9 138.48,653.95 141.28,653.42 z "
       style="fill:#747779" />
    <path
       id="path2539"
       d="M 149.52,616.12 C 149.46,616.87 149.34,618.37 149.28,619.12 C 147.94,617.96 146.68,616.71 145.46,615.42 C 145.45,614.55 145.43,612.82 145.42,611.95 C 143.47,613.88 141.51,615.8 139.31,617.46 C 137.62,615.6 136.55,613.31 135.76,610.95 C 134.09,612.71 133.44,615.09 132.26,617.17 C 130.23,618.29 129.81,615.6 128.87,614.43 C 132.66,613.56 131.94,606.8 136.3,607.53 C 137.81,608.98 138.5,611.02 139.85,612.59 C 141.96,610.6 143.51,608.14 145.2,605.82 C 147.16,609.04 147.37,613 149.52,616.12 z "
       style="fill:#747779" />
  </g>
  <g
     id="g3207"
     transform="translate(183.2884,-252.8915)"
     inkscape:export-filename="/Users/inigosurguy/Desktop/metatribble6.png"
     inkscape:export-xdpi="118.27778"
     inkscape:export-ydpi="118.27778">
    <path
       id="path2523"
       d="M 157.17,463.87 C 159.38,467.07 162.51,469.71 164,473.35 C 163.24,473.26 161.74,473.08 160.98,472.98 C 159.96,471.58 158.93,470.17 157.92,468.74 C 156.59,469.8 155.6,471.94 153.59,471.51 C 152.18,470.34 151.16,468.8 150.05,467.35 C 149.45,468.47 148.81,469.58 148.12,470.67 C 147.25,470.13 146.39,469.58 145.55,468.99 C 146.83,466.74 147.96,464.41 149.44,462.28 C 151.32,463.57 152.29,465.65 153.55,467.46 C 155.08,466.88 155.95,464.99 157.17,463.87 z "
       style="fill:#747779" />
    <path
       id="path2525"
       d="M 155.56,500.53 C 158.11,502.04 161.29,503.71 160.92,507.25 C 159.25,506.23 157.74,504.9 155.91,504.14 C 153.99,504.97 152.46,506.45 150.87,507.77 C 149.2,505.87 147.76,503.78 146.31,501.71 C 145.55,502.82 144.79,503.94 144.02,505.07 C 141.76,504.23 141.09,502.32 141.39,500.04 C 142.7,499.47 144,498.88 145.28,498.26 C 147.47,499.2 149.03,500.99 150.38,502.88 C 152.1,502.06 153.83,501.28 155.56,500.53 z "
       style="fill:#747779" />
    <path
       id="path2529"
       d="M 152.57,480.17 C 155.91,483.22 156.59,488.02 157.85,492.15 C 155.14,491.02 153.77,488.45 152.81,485.84 C 151.67,486.44 150.3,488.61 148.88,487.34 C 147.43,486.24 146.36,484.73 145.21,483.33 C 143.49,484.76 142.17,487.78 139.58,487.51 C 137.39,486.12 137.66,483.57 138.64,481.54 C 139.05,482.02 139.85,482.98 140.26,483.46 C 142.09,481.79 143.46,479.7 144.93,477.74 C 146.39,479.87 147.72,482.09 148.98,484.35 C 150.15,482.93 151.28,481.48 152.57,480.17 z "
       style="fill:#747779" />
    <path
       id="path2531"
       d="M 150.67,518.11 C 155.57,519.85 155.58,525.9 156.7,530.14 C 152.57,529.49 152.42,524.93 151.87,521.69 C 150.5,523.7 149.43,526.02 147.43,527.51 C 144.74,528.17 143.65,525.15 142.22,523.5 C 141.03,525.56 139.83,527.62 138.67,529.71 C 137.12,528.5 135.66,526.8 136.65,524.7 C 138.98,522.49 140.62,519.75 141.97,516.87 C 143.96,518.95 145.1,521.62 146.06,524.3 C 147.54,522.22 148.35,519.33 150.67,518.11 z "
       style="fill:#747779" />
    <path
       id="path2533"
       d="M 152.59,452.47 C 153.63,454.73 155.65,456.49 155.93,459.08 C 152.59,458.29 151.05,455.25 149.85,452.36 C 148.42,454.01 146.94,455.62 145.4,457.18 C 143.73,454.99 142.79,452.38 142.12,449.73 C 140.98,451.02 139.78,452.26 138.46,453.39 C 138.11,450.87 138.68,448.52 140.46,446.69 C 141.44,447.04 142.42,447.39 143.39,447.75 C 144.24,449.22 145.07,450.69 145.88,452.18 C 146.92,450.42 147.99,448.67 149.07,446.93 C 150.49,448.61 151.64,450.49 152.59,452.47 z "
       style="fill:#747779" />
    <path
       id="path2541"
       d="M 115.87,457.29 C 121.72,457.24 129.88,456.32 132.72,462.85 C 129.94,462.22 127.39,460.74 124.5,460.54 C 121.42,460.12 117.59,460.52 115.87,457.29 z "
       style="fill:#747779" />
    <path
       id="path2543"
       d="M 126.46,506.19 C 129.57,508.83 130.44,513.07 131.39,516.83 C 127.96,516.6 127.69,512.73 126.4,510.29 C 125.3,512.21 124.09,514.16 122.27,515.5 C 119.74,516.05 118.84,512.81 117.35,511.42 C 116.22,513.24 115.28,515.3 113.57,516.69 C 110.59,515.65 111.61,512.05 111.44,509.65 C 112.25,509.9 113.05,510.16 113.84,510.42 C 114.48,509.34 115.15,508.29 115.85,507.27 C 118.42,507.28 119.37,510.2 120.92,511.8 C 122.64,509.88 123.59,506.54 126.46,506.19 z "
       style="fill:#747779" />
    <path
       id="path2545"
       d="M 131.02,435.88 C 130.44,436.64 130.38,438.43 129.01,438.08 C 125.27,437.87 124.02,433.8 122.92,430.88 C 121.65,434.11 119.77,437.13 116.79,439.05 C 114.82,436.94 113.6,434.3 113.2,431.44 L 112.78,431.31 C 112.24,432.88 111.66,434.45 111.09,436.02 C 110.3,435.17 108.14,434.99 108.48,433.49 C 109.48,430.51 111.47,427.99 113.38,425.53 C 115.67,428.15 116.05,431.64 116.94,434.85 C 119.09,432.19 119.42,428.55 121.5,425.92 C 124.33,427.87 125.47,431.19 127.07,434.06 C 127.74,435.6 129.79,435.25 131.02,435.88 z "
       style="fill:#747779" />
    <path
       id="path2551"
       d="M 120.8,472.26 C 123.6,475.39 122.32,479.81 122.52,483.6 C 120.62,485.99 118.71,488.86 115.51,489.57 C 112.9,489.73 110.44,487.89 109.65,485.42 C 108.22,480.23 109.59,474.34 113.57,470.62 C 115.58,468.04 119.33,470.11 120.8,472.26 z "
       style="fill:#747779" />
    <path
       id="path2553"
       d="M 114.98,522.28 C 119.1,525.32 121.05,530.29 123.03,534.82 C 119.31,534.39 118.03,530.78 116.52,527.93 C 115.39,529.54 114.87,532.42 112.59,532.64 C 109.98,531.4 109.23,528.32 107.93,525.98 C 106.81,527.38 105.72,528.82 104.42,530.08 C 101.55,529.78 101.64,526.34 101.22,524.24 C 102.18,524.52 103.13,524.82 104.06,525.12 C 104.94,523.94 105.82,522.75 106.69,521.58 C 109.15,523.39 111.22,525.69 112.21,528.63 C 113.1,526.5 113.99,524.36 114.98,522.28 z "
       style="fill:#747779" />
    <path
       id="path2555"
       d="M 116.05,472.2 C 121.02,473.25 119.21,479.09 119.49,482.73 C 118.15,481.96 116.83,481.15 115.43,480.46 C 114.47,481.01 112.56,482.1 111.61,482.64 C 112.06,478.76 113.12,474.96 116.05,472.2 z "
       style="fill:#f6f7f7" />
    <path
       id="path2563"
       d="M 103.01,475.91 C 104.35,480.84 101.52,486.84 96.54,488.46 C 93.57,489.27 90.39,487.54 89.6,484.54 C 87.4,479.54 90.15,474.09 92.99,469.96 C 94.46,467.59 97.13,469.07 99.01,470.02 C 101.03,471.38 102.21,473.67 103.01,475.91 z "
       style="fill:#747779" />
    <path
       id="path2567"
       d="M 101.17,455.79 C 100.41,458.71 97.17,458.81 94.89,459.89 C 92.32,460.75 90.14,462.39 87.76,463.65 C 85.95,462.65 86.84,461.02 87.41,459.56 C 91.8,457.67 96.37,456.1 101.17,455.79 z "
       style="fill:#747779" />
    <path
       id="path2569"
       d="M 99.97,475.94 C 101.02,477.96 100.17,480.11 99.44,482.07 C 98.11,481.09 96.8,480.08 95.33,479.31 C 93.88,479.86 92.62,480.78 91.3,481.58 C 91.83,478.17 92.75,474.32 95.62,472.11 C 98.18,471.1 99.27,474.11 99.97,475.94 z "
       style="fill:#f6f7f7" />
    <path
       id="path2571"
       d="M 91.66,501.7 C 95.49,503.53 97.77,507.71 97.67,511.9 C 95.12,510.56 93.95,507.97 93.11,505.36 C 91.85,506.95 90.58,508.53 89.28,510.09 C 87.46,508.33 85.78,506.43 84.11,504.52 C 83.31,506.19 82.58,507.96 81.33,509.38 C 77.95,507.89 78.66,503.81 78.24,500.82 C 78.87,501.19 80.15,501.94 80.78,502.31 C 84.03,499.86 86.47,503.78 88.66,505.77 C 89.68,504.42 90.67,503.06 91.66,501.7 z "
       style="fill:#747779" />
    <path
       id="path2573"
       d="M 97.08,440.12 C 94.29,443.06 91.09,439.06 90.02,436.49 C 88.94,437.93 88.27,440.05 86.46,440.69 C 83.29,440.72 81.68,437.37 79.53,435.54 C 79.51,438.47 79.56,441.4 79.45,444.33 C 76.23,441.38 77.45,436.56 77.72,432.72 C 81.11,432.53 82.95,436.23 85.2,438.24 C 86.78,435.68 86.65,432.65 86.62,429.76 C 91.93,431.27 91.82,438.44 97.08,440.12 z "
       style="fill:#747779" />
    <path
       id="path2577"
       d="M 88.59,525.29 C 88.56,528.98 88.88,532.66 89.32,536.32 C 88.39,536.06 87.45,535.8 86.5,535.54 C 86.51,534.11 86.51,532.68 86.5,531.25 C 84.91,531.72 83.32,533 81.57,532.49 C 80.09,531.4 79.03,529.86 77.9,528.44 C 77.06,530.64 76.01,532.75 74.92,534.84 C 71.08,532.71 72.29,527.74 73.38,524.28 C 73.83,524.69 74.72,525.49 75.17,525.89 C 75.33,525.27 75.66,524.01 75.82,523.39 C 79.23,522.99 80.27,527.36 82.05,529.53 C 84.04,527.83 86.23,526.4 88.59,525.29 z "
       style="fill:#747779" />
    <path
       id="path2583"
       d="M 75.96,448.95 C 76.36,452.48 80.42,454.36 81.11,457.99 C 78.58,458.03 77.53,455.76 76.26,454.02 C 74.96,456.65 73.1,458.94 70.98,460.97 C 69.84,459.46 68.72,457.93 67.68,456.35 C 66.55,457.59 65.93,460.07 63.82,459.55 C 63.27,458.74 62.74,457.92 62.23,457.09 C 63.84,455.33 65.14,453.33 66.32,451.28 C 67.96,452.55 69.35,454.09 70.86,455.5 C 72.73,453.46 74.5,451.3 75.96,448.95 z "
       style="fill:#747779" />
    <path
       id="path2587"
       d="M 68.36,497.77 C 71.76,499.84 75.68,502.69 75.78,507.09 C 73.5,505.56 71.65,503.52 69.8,501.51 C 68.29,504.65 66.7,507.76 64.95,510.78 C 63.94,509.83 62.95,508.87 61.96,507.89 C 60.63,509.6 58.91,509.37 57.78,507.56 C 58.15,505.7 58.42,503.82 58.64,501.95 C 59.31,501.46 60.65,500.49 61.32,500 C 62.37,501.3 63.33,502.68 64.15,504.13 C 65.33,501.86 66.74,499.73 68.36,497.77 z "
       style="fill:#747779" />
    <path
       id="path2589"
       d="M 67.29,472.5 C 70.17,474.44 71.88,477.81 71.8,481.28 C 69.92,480.25 68.72,478.53 67.88,476.62 C 66.89,478.27 66.44,480.62 64.42,481.33 C 62.49,480.01 61.8,477.68 61.01,475.61 C 59.63,477.34 58.77,480.04 56.49,480.67 C 54.06,479.65 54.5,476.87 54.33,474.74 C 55.05,474.84 56.48,475.05 57.19,475.16 C 58.02,473.55 58.79,471.92 59.77,470.41 C 62.54,470.07 62.88,473.76 63.92,475.6 C 64.9,474.41 65.26,471.82 67.29,472.5 z "
       style="fill:#747779" />
  </g>
  <g
     id="g3251"
     transform="translate(82.36376,-346.8558)"
     inkscape:export-filename="/Users/inigosurguy/Desktop/metatribble9.png"
     inkscape:export-xdpi="118.27778"
     inkscape:export-ydpi="118.27778">
    <path
       id="path2593"
       d="M 64.11,632.23 C 63.71,632.43 62.92,632.82 62.52,633.01 C 60.68,630.35 59.53,627.32 58.5,624.28 C 56.94,625.91 55.31,627.49 53.61,628.99 C 51.95,626.96 50.72,624.62 49.91,622.13 C 48.24,623.6 46.57,625.08 44.9,626.56 C 44.29,625.55 43.68,624.54 43.07,623.54 C 43.24,621.77 43.36,620 43.45,618.24 C 44.21,618.96 44.96,619.7 45.69,620.44 C 46.93,619.67 48.11,618.79 49.49,618.33 C 51.85,619.49 52.52,622.17 53.35,624.43 C 54.89,622.96 56.53,618.71 59.17,620.81 C 61.87,624.06 62.11,628.58 64.11,632.23 z "
       style="fill:#747779" />
    <path
       id="path2597"
       d="M 62.5,602.79 C 62.51,603.57 62.53,605.15 62.53,605.94 C 57.67,605.91 56.21,600.52 56.37,596.56 C 54.75,598.13 53.04,599.59 51.3,601.03 C 50.04,599.06 49.13,596.89 49.45,594.51 C 48.67,594.55 47.13,594.63 46.36,594.67 C 46.42,593.97 46.53,592.57 46.59,591.88 C 47.71,591.32 48.81,590.77 49.9,590.21 C 51.74,591.07 53.08,592.42 52.98,594.66 C 54.17,593.54 55.36,592.42 56.53,591.3 C 59.76,594.09 59.56,598.59 59.56,602.47 C 60.3,602.55 61.76,602.71 62.5,602.79 z "
       style="fill:#747779" />
    <path
       id="path2601"
       d="M 58.95,657.16 C 59.77,658.41 60.55,659.69 61.03,661.12 C 57.23,661.04 56.24,657.29 55.07,654.42 C 54.18,655.5 53.49,658.76 51.54,657.55 C 49.62,655.52 49.13,652.56 48.06,650.04 C 46.72,651.35 45.72,653.54 43.59,653.62 C 41.98,652.29 42.54,650.09 42.29,648.29 C 42.69,648.51 43.47,648.95 43.87,649.17 C 44.77,648.21 45.68,647.24 46.66,646.38 C 49.84,647.16 50.92,650.51 52.01,653.19 C 52.52,651.81 53.02,650.43 53.65,649.13 C 57,650.37 57.59,654.3 58.95,657.16 z "
       style="fill:#747779" />
    <path
       id="path2615"
       d="M 44.99,665.96 C 44.24,666.81 44.28,669.09 42.65,668.64 C 40.39,668.77 39.68,666.27 38.56,664.82 C 36.52,665.08 34.48,664.87 33.1,663.12 C 32.29,663.7 31.44,664.27 30.56,664.81 C 29.88,664.13 29.21,663.44 28.56,662.73 C 28.82,662.22 29.33,661.21 29.59,660.7 C 30.49,660.02 31.36,659.35 32.23,658.67 C 33.34,659.65 34.41,660.68 35.56,661.6 C 36.87,660.96 38.06,660.15 39.35,659.51 C 41.23,661.1 41.56,663.62 41.85,665.91 C 42.63,665.92 44.2,665.94 44.99,665.96 z "
       style="fill:#747779" />
    <path
       id="path2617"
       d="M 39.69,576.94 C 39.4,578.47 39.91,580.41 38.57,581.59 C 34.85,582.13 33.11,578.24 32.08,575.37 C 30.41,577.45 28.69,579.56 26.43,581.04 C 24.78,580.39 24.03,578.71 23.03,577.38 C 21.9,577.93 20.88,578.88 19.51,578.73 C 18.49,575.5 21.77,573.32 23.08,570.74 C 23.88,571.22 24.68,571.71 25.46,572.21 C 25.58,573.71 25.71,575.23 25.84,576.75 C 27.72,574.77 29.13,572.42 30.31,569.99 C 33.67,571.49 34.43,575.44 36.01,578.41 C 37.24,577.91 38.48,577.41 39.69,576.94 z "
       style="fill:#747779" />
    <path
       id="path2621"
       d="M 29.58,600.58 C 33.16,601.22 35.22,604.69 35.8,608.02 C 33.91,606.71 32.35,604.96 30.38,603.75 C 27.64,603.19 24.81,603.77 22.03,603.81 C 21.75,599.39 26.77,600.35 29.58,600.58 z "
       style="fill:#747779" />
    <path
       id="path2627"
       d="M 30.17,616.89 C 32.49,621.5 28.56,627.69 23.52,627.55 C 16.46,625.99 15.78,615.35 21.79,612.05 C 25.29,611.43 28.82,613.69 30.17,616.89 z "
       style="fill:#747779" />
    <path
       id="path2631"
       d="M 27.53,616.28 C 27.54,618.4 27.64,620.7 25.99,622.3 C 24.95,619.96 23.93,617.59 23.41,615.07 C 24.87,615.17 26.21,615.75 27.53,616.28 z "
       style="fill:#f6f7f7" />
    <path
       id="path2635"
       d="M 22.85,637.93 C 24.53,637.17 24.78,639.41 25.16,640.54 C 24.84,645.32 20.87,649.06 16.53,650.53 C 13.57,651 10.85,649.15 8.8,647.2 C 6.39,644.26 5.52,640.41 4.15,636.93 C 9.35,637.38 7.72,644.38 11.79,646.3 C 14.08,648.04 16.68,646.09 18.55,644.69 C 21.05,643.23 21.42,640.18 22.85,637.93 z "
       style="fill:#747779" />
    <path
       id="path2639"
       d="M 18.97,667.13 C 19.72,668.25 21.72,669.03 20.91,670.7 C 17.98,671.24 16.74,668.36 15.89,666.15 C 14.53,667.18 13.32,668.61 11.54,668.92 C 9.39,667.84 8.27,665.61 6.96,663.71 C 5.32,665.58 3.55,667.32 1.69,668.97 C -1.01,666.4 -0.55,662.69 1.18,659.72 C 1.35,660.57 1.68,662.27 1.85,663.12 C 3.17,661.9 4.46,660.65 5.74,659.41 C 8.07,660.87 9.58,663.16 10.96,665.48 C 12.32,663.64 13.64,661.78 15.07,660.01 C 16.99,662 18.47,664.38 18.97,667.13 z "
       style="fill:#747779" />
    <path
       id="path2643"
       d="M 5.52,612.3 C 11.48,611.66 15.72,618.12 14.61,623.59 C 12.41,625.22 10.37,627.5 7.49,627.82 C 0.41,626.91 -1.1,614.92 5.52,612.3 z "
       style="fill:#747779" />
    <path
       id="path2649"
       d="M 7.62,615.52 C 10.86,615.42 11.86,619.48 11.37,622.07 C 10.5,621.83 9.62,621.59 8.74,621.36 C 8.08,619.59 4.93,616.82 7.62,615.52 z "
       style="fill:#f6f7f7" />
    <path
       id="path2651"
       d="M 8.3,602.41 C 8.49,602.9 8.88,603.89 9.07,604.38 C 6.57,604.58 3.92,604.36 1.55,605.4 C -0.94,606.37 -3.17,608.5 -6.07,607.66 C -3.94,602.35 3.29,600.04 8.3,602.41 z "
       style="fill:#747779" />
    <path
       id="path2653"
       d="M 1.28,573.65 C 2.48,576.39 4.07,578.91 6.17,581.05 C 4.21,583.74 2.01,579.75 0.64,578.39 C 0,578.7 -1.28,579.33 -1.92,579.64 C -4.25,579.37 -5.19,577.01 -6.51,575.41 C -6.47,578.11 -6.35,580.82 -6.54,583.52 C -7.11,583.73 -7.69,583.93 -8.28,584.11 C -9.32,579.84 -9.78,575.46 -9.47,571.07 C -5.95,571.05 -4.25,574.3 -2.53,576.83 C -2.41,574.88 -2.32,572.94 -2.24,571 C -0.8,571.5 0.76,572.05 1.28,573.65 z "
       style="fill:#747779" />
    <path
       id="path2661"
       d="M -16.08,647.14 C -13.63,649.82 -11.46,652.74 -9.1,655.49 C -8.75,657.76 -11.41,656.14 -12.23,655.54 C -13.04,654.82 -13.8,654.05 -14.6,653.3 C -15.19,653.78 -16.35,654.72 -16.93,655.19 C -18.77,654.36 -19.77,652.55 -20.91,650.98 C -21.44,652.17 -21.97,653.37 -22.64,654.5 C -24.7,655.32 -26.53,652.65 -25.01,651.02 C -23.88,649.61 -23.04,646.86 -20.8,647.53 C -19.73,648.55 -18.83,649.71 -17.91,650.85 C -17.3,649.61 -16.68,648.37 -16.08,647.14 z "
       style="fill:#747779" />
    <path
       id="path2667"
       d="M -24.13,625.98 C -19.95,627.05 -18.64,631.59 -16.98,635.04 C -19.56,634.64 -20.99,632.62 -22,630.43 C -22.96,631.64 -23.94,632.83 -24.94,634.04 C -26.48,632.9 -27.85,631.55 -28.99,630 C -30.38,632.38 -32.47,634.2 -34.88,635.5 C -36.48,632.93 -36.99,629.96 -36.28,627.02 C -35.44,628.2 -34.63,629.39 -33.84,630.59 C -32.89,628.75 -31.92,626.9 -31,625.05 C -28.68,625.76 -27.36,627.82 -25.93,629.6 C -25.32,628.38 -24.73,627.18 -24.13,625.98 z "
       style="fill:#747779" />
    <path
       id="path2669"
       d="M -19.49,587.01 C -19.56,587.54 -19.7,588.61 -19.77,589.15 C -21.77,588.37 -23.54,587.16 -25.03,585.61 C -25.53,586.07 -26.53,586.99 -27.03,587.45 C -28.43,587.59 -29.41,585.99 -30.67,585.49 C -31.62,586.16 -32.56,586.9 -33.49,587.64 C -33.97,586.56 -34.4,585.46 -34.8,584.35 C -33.98,582.91 -32.91,581.64 -31.94,580.33 C -30.65,581.43 -29.37,582.55 -28.14,583.71 C -27.87,582.77 -27.31,580.88 -27.04,579.93 C -24.05,581.81 -22.67,585.38 -19.49,587.01 z "
       style="fill:#747779" />
    <path
       id="path2671"
       d="M -26.2,600.98 C -22.08,602.68 -20.76,607.38 -19.14,611.12 C -21.47,610.31 -22.95,608.35 -24.23,606.36 C -24.7,607.51 -25.19,608.67 -25.69,609.82 C -27.85,609.71 -29.65,608.65 -30.85,606.86 C -31.45,608.65 -32.12,610.41 -32.82,612.18 C -35.09,611.29 -36.01,609.05 -36.86,606.96 C -35.52,606.39 -34.21,605.85 -32.91,605.25 C -33.22,604.11 -33.51,602.98 -33.8,601.84 C -31.3,602.43 -29.59,604.3 -27.97,606.13 C -27.41,604.41 -26.78,602.68 -26.2,600.98 z "
       style="fill:#747779" />
  </g>
  <g
     id="g3170"
     transform="translate(67.28307,-201.8492)"
     inkscape:export-filename="/Users/inigosurguy/Desktop/metatribble10.png"
     inkscape:export-xdpi="118.27778"
     inkscape:export-ydpi="118.27778">
    <path
       id="path2547"
       d="M 127.9,346.45 C 125.15,349.54 122.58,345.09 120.42,343.43 C 119.36,344.67 118.41,346.01 117.38,347.3 C 114.92,345.57 112.7,343.4 111.95,340.38 C 111.08,342.21 110.15,344.02 109.2,345.82 C 108.36,345.33 107.51,344.84 106.65,344.36 C 106.55,343.61 106.35,342.12 106.25,341.38 C 106.68,341.11 107.55,340.56 107.98,340.29 C 108.87,338.43 109.87,336.64 111.01,334.93 C 112.57,336.79 113.89,338.82 114.96,341 C 115.2,341.59 115.68,342.77 115.92,343.37 C 117.25,341.95 117.9,338.91 120.31,339.46 C 122.85,341.81 124.54,345.09 127.9,346.45 z "
       style="fill:#747779" />
    <path
       id="path2549"
       d="M 122.47,322.12 C 122,323.6 121.53,325.09 121.03,326.57 C 119.19,324.71 117.46,322.75 115.96,320.61 C 115.02,323.45 113.17,325.81 110.95,327.77 C 108.95,325.8 107.3,323.53 105.83,321.15 C 104.99,322.7 104.14,324.26 103.28,325.81 C 102.41,325.17 101.54,324.52 100.66,323.88 C 101.57,321.56 102.55,319.15 104.44,317.43 C 107.41,318.19 108.99,321.12 110.18,323.7 C 111.99,321.25 113.48,318.58 114.95,315.93 C 117.32,317.73 118.62,320.45 120.53,322.64 C 121.02,322.51 121.98,322.25 122.47,322.12 z "
       style="fill:#747779" />
    <path
       id="path2557"
       d="M 111.42,295.53 C 116.78,298.33 117.99,304.94 117.57,310.45 C 114.73,307.36 114.6,302.95 112.9,299.28 C 111.2,301.8 109.48,304.32 107.53,306.66 C 105.98,305.14 104.62,303.44 103.71,301.45 C 103.12,302.41 102.54,303.37 101.93,304.34 C 101.13,304.07 100.31,303.79 99.49,303.52 C 99.5,302.87 99.5,301.57 99.51,300.92 C 100.7,299 101.79,297.02 102.89,295.05 C 104.84,296.98 106.06,299.45 106.97,302.01 C 108.06,299.6 109.56,297.4 111.42,295.53 z "
       style="fill:#747779" />
    <path
       id="path2559"
       d="M 104.51,261.44 C 107.32,264.13 109.54,267.44 111.03,271.04 C 108.01,269.43 106.07,266.56 104.11,263.87 C 102.81,266.77 101.14,269.5 98.83,271.72 C 97.13,269.94 95.61,267.99 94.43,265.83 C 93.72,266.79 92.96,267.72 92.17,268.63 C 91.15,268.24 90.15,267.8 89.16,267.33 C 90.75,264.78 92.4,262.27 94.12,259.81 C 95.98,262.12 97.34,264.77 98.08,267.63 C 99.28,265.29 100.28,262.83 101.82,260.69 C 102.89,260.43 103.79,260.68 104.51,261.44 z "
       style="fill:#747779" />
    <path
       id="path2561"
       d="M 98.53,353.22 C 101.47,356.21 102.23,360.57 104,364.25 C 101.51,363.38 99.57,361.65 98.76,359.09 C 97.55,361.18 97.29,364.61 94.43,364.98 C 92.84,364 91.52,362.66 90.15,361.4 C 89.19,363.28 88.14,365.12 87.05,366.94 C 84.82,365.26 83.94,362.63 83.2,360.05 C 84.16,360.44 85.1,360.84 86.02,361.25 C 86.98,359.71 87.73,357.94 89.29,356.92 C 91.1,358.07 92.31,359.87 93.82,361.33 C 94.95,358.81 95.62,356.1 96.83,353.62 C 97.25,353.52 98.11,353.32 98.53,353.22 z "
       style="fill:#747779" />
    <path
       id="path2565"
       d="M 96.7,245.39 C 97.87,248.18 100,250.44 101.01,253.3 C 95.57,251.89 94.86,245.73 91.56,242.07 C 90.08,244.59 88.83,247.25 87.2,249.68 C 84.24,249.65 83.1,246.2 82.06,243.95 C 83.19,244.55 84.25,245.19 85.34,245.82 C 86.53,243.45 87.61,240.96 89.44,239 C 93.04,239.17 95.36,242.4 96.7,245.39 z "
       style="fill:#747779" />
    <path
       id="path2575"
       d="M 90.81,344.21 C 88.82,347.8 85.29,343.82 84.05,341.63 C 82.26,343.28 80.49,347.37 77.59,345.65 C 75.62,344.86 75.52,342.57 75.06,340.81 C 73.73,343.02 72.47,345.28 70.92,347.35 C 70.31,346.43 69.74,345.48 69.21,344.51 C 70.56,341.44 72.74,338.82 74.11,335.76 C 74.86,336.34 75.59,336.92 76.31,337.52 C 76.76,339.41 77.29,341.28 77.85,343.15 C 80.3,341.14 81.84,338.38 83.11,335.53 C 85.97,338.27 86.38,343.32 90.81,344.21 z "
       style="fill:#747779" />
    <path
       id="path2579"
       d="M 88.42,291.76 C 90.59,295.5 86.9,298.98 84.11,301.03 C 83.78,300.72 83.14,300.11 82.82,299.8 C 82.74,300.85 82.68,301.89 82.63,302.94 C 81.41,302.38 80.21,301.79 79,301.2 C 81.52,298.51 84.35,296.09 86.61,293.15 C 84.15,293.24 81.69,293.39 79.24,293.66 C 78.25,292.66 76.99,291.82 76.41,290.48 C 77.12,288.85 78.1,287.35 78.98,285.82 C 76.89,286.35 74.73,288.65 72.47,287.47 C 71.74,284.13 76.07,283.42 78.42,282.6 C 80.17,281.81 81.39,283.65 82.63,284.49 C 82.58,285.14 82.5,286.43 82.46,287.07 C 81.97,287.81 80.99,289.27 80.49,290.01 C 83.15,290.09 86.47,289.45 88.42,291.76 z "
       style="fill:#747779" />
    <path
       id="path2581"
       d="M 86.82,317.7 C 87.27,317.89 88.17,318.28 88.62,318.47 C 88.57,319.23 88.47,320.75 88.42,321.51 C 86.43,319.87 84.6,318.05 83.03,316 C 82.07,317.35 81.06,318.67 80.06,319.99 C 77.22,319.06 75.51,316.55 73.6,314.44 C 73.55,317.01 73.57,319.59 73.4,322.16 C 70.04,319.21 70.29,314.73 71.74,310.87 C 74.3,312.17 76.33,314.21 78.11,316.42 C 78.9,315.62 79.69,314.82 80.47,314.03 C 80.5,312.6 80.53,311.17 80.58,309.74 C 84,311.07 85.14,314.79 86.82,317.7 z "
       style="fill:#747779" />
    <path
       id="path2585"
       d="M 76.36,258.55 C 77.43,259.58 78.04,260.95 78.75,262.22 C 78.13,264.17 77.58,266.13 76.99,268.1 C 74.06,266.54 75.6,263.16 75.57,260.55 C 73.24,261.26 70.93,262.08 68.52,262.5 C 67.26,261.74 66.25,260.65 65.15,259.67 C 66.38,257.53 67.69,255.44 68.97,253.34 C 67.53,254.08 66.09,254.84 64.65,255.61 C 64.44,254.54 62.42,252.75 64.31,252.19 C 66.46,251.07 70.2,248.08 71.85,251.29 C 73.79,253.95 70.55,256.51 69.36,258.75 C 71.63,258.49 74.26,257.06 76.36,258.55 z "
       style="fill:#747779" />
    <path
       id="path2591"
       d="M 60.14,364.75 C 63.71,366.8 65.01,371.25 67.99,374.02 C 64.47,374.09 62.13,371.38 60.9,368.39 C 59.43,370.82 58.11,373.38 56.21,375.52 C 53.57,375.85 52.33,372.75 50.67,371.22 C 49.11,373.81 47.55,376.4 46.1,379.05 C 45.22,378.47 44.33,377.9 43.44,377.33 C 43.53,375.8 43.61,374.27 43.7,372.74 C 44.27,372.59 45.42,372.3 46,372.15 C 47.04,370.24 48.15,368.36 49.24,366.49 C 51.51,367.63 53.2,369.5 54.23,371.8 C 56.18,369.57 57.38,365.83 60.14,364.75 z "
       style="fill:#747779" />
    <path
       id="path2595"
       d="M 59.82,357.82 C 61,358.75 63.53,359.33 62.26,361.26 C 58.98,361.52 57.14,358.25 55.57,355.89 C 54.27,357.67 52.9,359.4 51.47,361.09 C 50.27,360.08 49.08,359.06 47.89,358.03 C 47.08,359.03 46.29,360.04 45.39,360.99 C 44.48,360.25 43.59,359.47 42.72,358.66 C 44.19,356.74 45.66,354.82 47.12,352.91 C 48.63,354.54 49.91,356.36 50.86,358.37 L 52.53,357.82 C 52,357.39 51.46,356.96 50.91,356.52 C 51.98,354.72 53,352.91 54.01,351.1 C 56.54,352.78 58.35,355.21 59.82,357.82 z "
       style="fill:#747779" />
    <path
       id="path2599"
       d="M 60.51,285.56 C 60.86,286.59 61.19,287.63 61.52,288.67 C 60.55,288.16 59.58,287.65 58.62,287.11 C 58.43,286.8 58.05,286.17 57.87,285.85 L 57.54,286.11 C 53.96,286.8 50.07,285.91 46.75,287.81 C 45.3,289.02 43.64,287.14 44.77,285.67 C 49.15,281.92 55.88,282.59 60.51,285.56 z "
       style="fill:#747779" />
    <path
       id="path2603"
       d="M 51.76,296.79 C 56.26,301.43 59.23,307.79 58.59,314.36 C 56.74,316.41 54.7,319.06 51.6,318.74 C 46.57,319.44 43.3,313.98 43.63,309.55 C 44.21,305.61 44.29,301.2 47.02,298.04 C 48.38,296.25 50.56,297.87 52.15,298.28 C 52.05,297.91 51.86,297.16 51.76,296.79 z "
       style="fill:#747779" />
    <path
       id="path2605"
       d="M 57.42,330.45 C 57.64,330.99 58.08,332.09 58.31,332.64 C 53.57,337.65 49.76,344.57 42.44,346.08 C 36.24,346.37 30.96,342.36 26.59,338.41 C 25.18,337.24 24.53,335.5 24.03,333.79 C 28.75,336.25 32.06,341.17 37.55,342.15 C 43.59,343.85 48.95,339.1 52.14,334.49 C 53.63,332.91 54.87,330.07 57.42,330.45 z "
       style="fill:#747779" />
    <path
       id="path2607"
       d="M 53.14,301.47 C 55.29,305.25 56.24,309.65 55.4,313.96 C 54.68,312.78 53.98,311.58 53.28,310.38 C 51.06,309.63 48.72,309.3 46.37,309.64 C 46.67,307.2 47.15,304.8 47.68,302.4 C 49.51,302.13 51.33,301.79 53.14,301.47 z "
       style="fill:#f6f7f7" />
    <path
       id="path2609"
       d="M 55.01,247.8 C 54.16,248.6 53.29,249.39 52.41,250.18 C 50.71,248.63 49.19,246.88 47.98,244.91 C 47.09,246.66 46.11,248.36 45.1,250.05 C 42.31,248.64 41.07,245.8 40.01,243.03 C 38.71,245.85 37.29,248.62 35.87,251.39 C 35.48,250.18 34.15,249.07 34.61,247.71 C 35.8,244.72 37.52,241.97 38.94,239.08 C 40.94,241.05 42.56,243.34 44.02,245.73 C 45.1,243.58 46.14,241.41 47.14,239.22 C 49.2,241.14 50.56,243.61 51.13,246.36 C 52.43,246.84 53.74,247.31 55.01,247.8 z "
       style="fill:#747779" />
    <path
       id="path2611"
       d="M 49.72,256.29 C 53.5,259.29 53.71,264.37 54.19,268.79 C 52.59,267.41 51.17,265.85 50.01,264.08 C 48.86,265.8 47.49,267.36 46.01,268.81 C 45.21,267.95 44.4,267.09 43.57,266.24 C 43.43,265.52 43.14,264.08 43,263.36 C 41.17,265.37 39.36,267.4 37.49,269.38 C 36.03,267.82 34.86,266.02 34.02,264.05 C 35.21,263.89 36.92,265.11 37.7,263.79 C 39.53,262.22 40.13,259.21 42.38,258.3 C 44.5,259.33 44.93,262.03 46.08,263.89 C 47.4,261.41 48.55,258.84 49.72,256.29 z "
       style="fill:#747779" />
    <path
       id="path2613"
       d="M 52.5,228.14 C 52.5,228.98 52.5,230.67 52.5,231.51 C 50.83,232.09 49.15,232.63 47.45,233.15 C 44.83,230.93 42.88,228.05 42,224.7 C 40.66,228.33 38.75,231.73 36.23,234.68 C 35.38,233.84 34.53,233.01 33.66,232.18 L 33.34,234.15 C 32.5,233.29 31.66,232.43 30.81,231.57 C 31.46,228.99 32.12,226.41 32.85,223.85 C 34.84,225.13 35.92,227.22 37.04,229.21 C 37.51,225.61 38.89,222.22 40.69,219.1 C 44.15,221.59 45.37,225.71 46.81,229.5 C 48.72,229.07 50.62,228.61 52.5,228.14 z "
       style="fill:#747779" />
    <path
       id="path2619"
       d="M 28.86,296.1 C 33.84,298.52 35.5,304.47 35.55,309.6 C 35.32,313.06 34.88,318.03 30.64,318.74 C 28.26,318.98 24.83,319.18 23.77,316.51 C 20.69,309.49 23.06,300.96 28.86,296.1 z "
       style="fill:#747779" />
    <path
       id="path2623"
       d="M 32.46,283.39 C 32.48,284.1 32.52,285.5 32.54,286.21 C 28.62,286.04 25.05,287.72 22.42,290.57 C 21.91,289.22 20.7,287.41 22.37,286.36 C 24.85,283.36 28.89,283.19 32.46,283.39 z "
       style="fill:#747779" />
    <path
       id="path2625"
       d="M 31.26,300.5 C 32.95,305.14 33.08,310.13 31.83,314.91 C 30.99,313.47 30.24,311.96 29.27,310.6 C 27.92,310.18 26.51,309.91 25.11,309.62 C 25.36,306.22 26.88,303.21 28.85,300.5 C 29.45,300.5 30.66,300.5 31.26,300.5 z "
       style="fill:#f6f7f7" />
    <path
       id="path2629"
       d="M 21.98,351.85 C 25.27,354.56 26.63,358.75 29,362.17 C 26.09,361.65 24.17,359.43 22.96,356.88 C 21.36,358.73 19.61,360.45 17.7,361.98 C 16.4,360.87 15.09,359.76 13.82,358.6 C 12.71,361.12 11.41,363.56 9.77,365.78 C 8.93,364.31 8.35,362.73 8.38,361.01 C 10.48,358.41 10.96,355.04 11.82,351.92 C 13.67,353.3 14.99,355.18 15.98,357.25 C 16.27,357.5 16.86,358 17.15,358.25 C 18.79,356.14 20.38,353.98 21.98,351.85 z "
       style="fill:#747779" />
    <path
       id="path2633"
       d="M 25.4,251.2 C 24.95,252.04 24.95,253.45 23.78,253.71 C 20.88,254.99 18.38,252.07 16.72,250.09 C 15.64,251.56 14.53,253.02 13.39,254.46 C 11.58,253.35 9.81,252.17 8.06,250.96 C 8.5,253.98 8.64,257.05 8.43,260.11 C 5.83,256.33 5.74,251.57 5.39,247.18 C 7.52,248.42 9.53,249.85 11.65,251.09 C 13.77,249.29 14.46,246.54 15.05,243.95 C 17.11,246.28 18.8,248.9 20.43,251.54 C 22.09,251.42 23.75,251.3 25.4,251.2 z "
       style="fill:#747779" />
    <path
       id="path2637"
       d="M 20.57,265.51 C 20.53,266.4 20.46,268.17 20.42,269.05 C 18.2,268.21 16.24,266.88 14.29,265.56 C 13.25,267.53 12.46,269.63 11.3,271.55 C 10.07,271.75 8.12,270.81 8.49,269.35 C 9.45,266.52 11,263.92 12.1,261.15 C 15,262.5 17.14,265.59 20.57,265.51 z "
       style="fill:#747779" />
    <path
       id="path2641"
       d="M 14.25,373.63 C 15.22,376.62 16.13,379.63 16.94,382.67 C 14.7,381.53 12.32,380.72 9.97,379.82 C 8.16,378.68 7.04,376.73 5.52,375.26 C 3.47,378.08 1.56,381.02 -0.79,383.63 C -1.78,383.21 -2.78,382.79 -3.79,382.38 C -4.12,380.9 -4.42,379.4 -4.47,377.89 C -3.49,378.25 -2.55,378.68 -1.62,379.11 C 0.05,376.81 1.51,374.37 3.17,372.08 C 3.94,370.45 5.62,371.94 6.46,372.63 C 8.08,374.02 9.24,375.84 10.46,377.56 C 10.93,375.8 11.38,374.03 11.77,372.26 C 12.61,372.71 13.43,373.17 14.25,373.63 z "
       style="fill:#747779" />
    <path
       id="path2645"
       d="M 7.84,338.65 C 9.65,337.34 11.77,337.88 13.6,338.75 C 8.24,340.37 6.37,346.21 2.17,349.42 C -0.62,348.2 -2.56,345.85 -4.23,343.4 C -5.2,346.18 -6.05,349.05 -7.65,351.55 C -8.72,351.38 -9.76,351.05 -10.76,350.55 C -8.81,346.99 -7.74,343.07 -6.44,339.26 C -3.43,340.71 -1.49,343.49 0.53,346.02 C 3.08,343.67 5.31,341 7.84,338.65 z "
       style="fill:#747779" />
    <path
       id="path2647"
       d="M 10.4,327.97 C 10.65,328.45 11.15,329.43 11.39,329.92 C 7.25,330.63 4.42,327.21 1.91,324.49 C 0.7,325.79 -0.24,327.5 -1.91,328.28 C -3.1,327.48 -4.21,326.55 -5.33,325.64 C -5.55,326.37 -5.99,327.81 -6.21,328.54 C -7,327.91 -7.82,327.29 -8.56,326.57 C -8.2,324.31 -7.52,322.11 -6.98,319.89 C -5.09,321.14 -3.74,322.96 -2.65,324.92 C -1.72,323.17 -0.81,321.41 0.06,319.63 C 3.57,322.34 5.76,327 10.4,327.97 z "
       style="fill:#747779" />
    <path
       id="path2655"
       d="M -3.5,270.83 C 0.51,273.77 1.42,279.23 4.56,282.97 C 1.31,282.03 -0.8,279.21 -1.92,276.15 C -2.51,278.81 -4.61,280.63 -6.58,282.32 C -8.85,280.68 -10.72,278.59 -12.3,276.3 C -12.77,279.03 -13.26,281.78 -14.19,284.4 C -17.68,281.25 -14.81,275.67 -13.39,271.95 C -11.19,273.98 -9.46,276.42 -7.81,278.89 C -5.4,276.78 -4.37,273.81 -3.5,270.83 z "
       style="fill:#747779" />
    <path
       id="path2657"
       d="M -4.3,296.78 C -1.02,300.15 1.51,304.17 4.33,307.91 C 1.48,307.29 -0.6,305.22 -2.47,303.12 C -3.82,305.1 -5.32,306.98 -6.93,308.77 C -9.08,307.42 -11.01,305.73 -12.24,303.48 C -12.67,304.85 -13.15,306.22 -13.63,307.59 C -14.16,307.26 -15.22,306.61 -15.75,306.29 C -15.53,303.52 -14.85,300.83 -13.95,298.22 C -11.62,300.23 -9.93,302.8 -8.41,305.44 C -6.31,302.94 -5.16,299.88 -4.3,296.78 z "
       style="fill:#747779" />
    <path
       id="path2659"
       d="M 1.34,244.19 C 0.97,245.2 1.01,246.67 -0.43,246.81 C -1.82,246.17 -3.11,245.34 -4.42,244.53 C -4.48,243.21 -4.58,241.9 -4.68,240.58 C -6.05,243.44 -7.69,246.18 -9.89,248.49 C -11.17,247.26 -12.4,245.97 -13.72,244.77 C -14.6,248.27 -15.98,251.62 -17.73,254.78 C -18.62,254.3 -19.52,253.82 -20.42,253.34 C -20.45,252.15 -20.48,250.95 -20.51,249.76 C -19.36,248.86 -18.32,247.83 -17.34,246.76 C -15.81,246.63 -15.59,245.75 -16.87,244.95 C -16.28,243.05 -16.71,239.94 -14.52,239.11 C -12.49,239.84 -11.79,242.11 -10.65,243.72 C -8.49,240.78 -7.35,237.3 -6.22,233.87 C -2.79,236.14 -1.93,240.29 -1.22,244.05 C -0.58,244.09 0.7,244.16 1.34,244.19 z "
       style="fill:#747779" />
    <path
       id="path2663"
       d="M -16.69,349.75 C -15.53,352.81 -15.39,356.1 -15.57,359.34 C -16.89,358.39 -18.12,357.3 -19.27,356.13 C -20.12,358.12 -21.04,360.09 -21.95,362.06 C -23.31,361.17 -24.58,360.17 -25.78,359.06 C -26.53,360.38 -27.26,361.69 -28.03,363.01 C -29.81,362.24 -30.99,360.98 -30.59,358.93 C -28.12,357.02 -27.13,354.02 -26.03,351.23 C -24.64,352.48 -23.48,353.94 -22.77,355.68 C -21.56,353.24 -20.33,350.82 -19.14,348.38 C -18.32,348.83 -17.5,349.29 -16.69,349.75 z "
       style="fill:#747779" />
    <path
       id="path2665"
       d="M -17.57,262.51 C -15.87,262.76 -17.62,264.41 -17.83,265.19 C -18.95,266.55 -20.81,266.95 -22.31,267.78 C -24.81,266.4 -27.23,264.88 -29.71,263.47 C -30.87,265.43 -30.74,268.77 -33.55,269.12 C -34.48,267.58 -35.19,265.92 -35.91,264.27 C -35.4,264.31 -34.37,264.38 -33.86,264.42 C -33.34,262.79 -32.79,261.17 -32.21,259.57 C -29.22,260.89 -26.61,263.01 -23.49,264.04 C -21.43,263.89 -19.56,262.94 -17.57,262.51 z "
       style="fill:#747779" />
    <path
       id="path2673"
       d="M -31.59,315.26 C -28.33,315.14 -26.34,318.22 -25.64,321.03 C -27.22,320.19 -28.72,319.2 -30.2,318.18 C -30.64,320.56 -31.23,322.9 -31.83,325.25 C -34.47,324.51 -36.34,322.5 -37.97,320.42 C -38.48,321.62 -40.43,322.47 -39.75,324.02 C -39.03,325.82 -39.95,327.6 -40.54,329.28 C -42.96,328 -43.79,325.58 -43.78,322.97 C -44.05,322.22 -44.58,320.73 -44.84,319.99 C -44.09,320.28 -42.59,320.87 -41.83,321.16 C -41.47,319.4 -41.11,317.63 -40.31,316.02 C -37.52,316.49 -35.85,318.96 -33.93,320.76 C -33.25,318.94 -34.29,315.5 -31.59,315.26 z "
       style="fill:#747779" />
    <path
       id="path2675"
       d="M -33.2,279.34 C -29.49,280.84 -26.56,283.99 -26.15,288.1 C -28.27,286.83 -29.94,285.01 -31.48,283.11 C -32.43,285.85 -33.39,288.59 -34.55,291.25 C -36.64,289.67 -37.86,287.42 -38.04,284.8 C -38.05,288.62 -39.27,292.22 -40.68,295.72 C -41.55,295.24 -42.44,294.77 -43.33,294.3 C -43.95,292.27 -44.52,290.21 -44.75,288.08 C -44.29,288.64 -43.38,289.76 -42.93,290.31 C -42.65,290.11 -42.09,289.69 -41.82,289.48 C -41.23,286.46 -40.43,283.49 -39.44,280.58 C -38.12,281.67 -36.9,282.86 -35.82,284.19 C -35,282.54 -34.12,280.93 -33.2,279.34 z "
       style="fill:#747779" />
  </g>
  <g
     id="g3429"
     transform="translate(-16.24074,1.160029)">
    <path
       id="path3291"
       d="M 293.0659,593.60232 C 295.0659,594.48232 296.0359,598.32232 292.7859,597.63232 C 291.3159,596.00232 290.4059,593.99232 289.4459,592.05232 C 288.0259,593.70232 286.5159,595.27232 285.0059,596.85232 C 284.3859,595.35232 283.7859,593.85232 283.2059,592.34232 C 283.5059,590.52232 283.7559,588.68232 283.9459,586.85232 C 282.9659,587.77232 281.9859,588.70232 281.0059,589.63232 C 280.4759,588.58232 279.9559,587.52232 279.4459,586.47232 C 281.3459,585.09232 283.2659,582.75232 285.8859,583.87232 C 286.1659,585.87232 286.4559,587.86232 286.6659,589.88232 C 287.6159,588.35232 288.5559,586.83232 289.5359,585.34232 C 291.0359,587.95232 292.0459,590.78232 293.0659,593.60232 z "
       style="fill:#747779" />
    <path
       id="path3293"
       d="M 287.8959,609.20232 C 289.4859,612.08232 291.7659,614.68232 292.3659,618.01232 C 288.4159,616.97232 287.2759,612.65232 285.4459,609.54232 C 284.1859,612.20232 282.3659,614.53232 280.0359,616.35232 C 278.8059,615.24232 277.5759,614.13232 276.3659,613.00232 C 276.0059,614.34232 275.9759,615.85232 275.1259,617.03232 C 274.4459,616.41232 273.7859,615.79232 273.1359,615.15232 C 273.7959,612.23232 274.3959,609.29232 275.2559,606.43232 C 277.1359,608.14232 278.2959,610.40232 279.4659,612.62232 C 281.1359,610.54232 282.4659,608.22232 284.1059,606.15232 C 286.1059,605.64232 286.8859,607.95232 287.8959,609.20232 z "
       style="fill:#747779" />
    <path
       id="path3295"
       d="M 277.3859,633.74232 C 278.7959,636.34232 281.5759,638.47232 281.0759,641.75232 C 278.3259,640.54232 276.7959,637.94232 275.4659,635.40232 C 275.2159,635.10232 274.7259,634.49232 274.4759,634.19232 C 273.6459,636.69232 272.1559,638.88232 270.1759,640.62232 C 268.8259,638.41232 267.7159,636.08232 266.6359,633.74232 C 265.5259,635.69232 264.2959,637.59232 262.7159,639.21232 C 260.3559,635.64232 263.6059,632.51232 265.5359,629.71232 C 266.2459,627.97232 268.0459,629.40232 268.5659,630.44232 C 269.3359,632.05232 269.8059,633.79232 270.2959,635.51232 C 271.2859,633.60232 272.2959,631.70232 273.3159,629.82232 C 274.9159,630.86232 276.4559,632.04232 277.3859,633.74232 z "
       style="fill:#747779" />
    <path
       id="path3297"
       d="M 277.3459,571.16232 C 276.4659,572.55232 276.0259,575.09232 273.7959,574.14232 C 270.9959,572.65232 270.7359,569.13232 269.7659,566.45232 C 268.0059,568.09232 266.1959,569.71232 264.0859,570.89232 C 263.6059,570.37232 262.6259,569.32232 262.1459,568.80232 C 261.9959,568.80232 261.6959,568.80232 261.5459,568.80232 C 261.6459,567.60232 261.7259,566.40232 261.7959,565.21232 C 260.4559,566.80232 259.2059,568.47232 257.9859,570.16232 C 257.5459,569.19232 257.0859,568.22232 256.7259,567.22232 C 257.9759,564.65232 260.3859,562.91232 262.2959,560.87232 C 263.8259,562.37232 264.9559,564.18232 265.2959,566.32232 C 266.6659,564.77232 268.0459,563.24232 269.4459,561.73232 C 272.1159,564.20232 272.9059,567.79232 273.7959,571.16232 C 274.6859,571.16232 276.4659,571.16232 277.3459,571.16232 z "
       style="fill:#747779" />
    <path
       id="path3299"
       d="M 259.8059,581.10232 C 265.6159,580.30232 273.9259,581.65232 274.9359,588.67232 C 272.1859,587.48232 270.0559,585.04232 267.0459,584.45232 C 264.6859,584.04232 262.2659,584.18232 259.8759,584.12232 C 259.8559,583.36232 259.8159,581.85232 259.8059,581.10232 z "
       style="fill:#747779" />
    <path
       id="path3303"
       d="M 259.3159,611.57232 C 262.4459,614.03232 260.8259,617.97232 259.7959,621.07232 C 258.3359,622.40232 256.8759,623.72232 255.4059,625.05232 C 252.6559,624.01232 249.4659,623.01232 248.0859,620.14232 C 246.8559,617.48232 245.3159,614.07232 247.3059,611.39232 C 249.3859,614.95232 249.4759,620.49232 254.3859,621.41232 C 257.2559,618.83232 258.2759,615.13232 259.3159,611.57232 z "
       style="fill:#747779" />
    <path
       id="path3307"
       d="M 250.2159,565.70232 C 249.8059,566.81232 249.7459,568.54232 248.0759,568.10232 C 245.8359,567.23232 244.5759,565.04232 243.2459,563.18232 C 242.7659,565.02232 242.2059,566.95232 240.8159,568.34232 C 237.9959,568.87232 237.2659,565.44232 235.7959,563.81232 C 235.2459,565.83232 234.8859,567.89232 234.4759,569.96232 C 231.6459,566.60232 233.4559,562.30232 234.1259,558.52232 C 236.9059,559.87232 238.0559,562.79232 239.4959,565.31232 C 240.0559,562.78232 240.6259,560.26232 241.1559,557.74232 C 244.4059,560.19232 245.9959,564.65232 250.2159,565.70232 z "
       style="fill:#747779" />
    <path
       id="path3309"
       d="M 241.4959,630.02232 C 243.6959,632.55232 248.6459,634.50232 247.0759,638.50232 C 245.3959,637.20232 243.7859,635.81232 242.2659,634.33232 C 241.3759,635.54232 240.4859,636.73232 239.5859,637.93232 C 238.3459,636.68232 237.1759,635.36232 236.0659,634.00232 C 235.5459,635.70232 235.0459,637.41232 234.3759,639.07232 C 233.2359,639.08232 232.6959,638.51232 232.7659,637.35232 C 232.3759,634.30232 233.7859,631.45232 235.0859,628.81232 C 237.5659,628.85232 237.5859,631.90232 238.6259,633.53232 C 239.5959,632.37232 240.5559,631.19232 241.4959,630.02232 z "
       style="fill:#747779" />
    <path
       id="path3311"
       d="M 240.5859,581.72232 C 242.3259,580.52232 243.2659,583.08232 244.4259,583.94232 C 240.7959,585.04232 237.9359,587.49232 235.8259,590.59232 C 235.2759,589.31232 234.8459,587.98232 234.5059,586.63232 C 236.4559,584.91232 238.0859,582.67232 240.5859,581.72232 z "
       style="fill:#747779" />
    <path
       id="path3313"
       d="M 223.6659,615.48232 C 226.5859,616.89232 231.1759,619.26232 230.0559,623.20232 C 228.4159,621.96232 226.8159,620.67232 225.2459,619.35232 C 224.3959,621.12232 223.5159,622.88232 222.5959,624.62232 C 220.9359,623.03232 219.4459,621.15232 217.2159,620.35232 C 217.4059,620.69232 217.7959,621.37232 217.9859,621.70232 C 217.3259,622.57232 216.6459,623.45232 215.9759,624.32232 C 215.5259,623.19232 215.0759,622.06232 214.6559,620.92232 C 215.9859,618.84232 217.1359,616.65232 218.4259,614.55232 C 219.4759,616.31232 220.4859,618.09232 221.3959,619.93232 C 222.0659,618.42232 222.3759,616.61232 223.6659,615.48232 z "
       style="fill:#747779" />
    <path
       id="path3315"
       d="M 226.5559,575.49232 C 227.7959,577.92232 229.3259,580.32232 229.7859,583.04232 C 226.7559,584.18232 226.1959,580.10232 225.3759,578.12232 C 224.1259,580.07232 222.7359,581.93232 221.2759,583.74232 C 220.0159,582.57232 218.8559,581.29232 217.6259,580.09232 C 216.5059,581.49232 215.4859,582.98232 214.3859,584.42232 C 213.8659,583.38232 213.2959,582.37232 212.8759,581.29232 C 213.9959,578.94232 215.2159,576.63232 216.5659,574.41232 C 218.7359,575.11232 219.4259,577.64232 220.5559,579.37232 C 221.4959,577.34232 222.2959,575.24232 223.3759,573.29232 C 225.0259,572.31232 225.7359,574.48232 226.5559,575.49232 z "
       style="fill:#747779" />
    <path
       id="path3317"
       d="M 226.0459,603.94232 C 225.9459,605.44232 225.6759,606.94232 223.7859,606.79232 C 222.3559,605.89232 221.3559,604.51232 220.2959,603.23232 C 218.9959,604.42232 218.0259,606.79232 215.8659,606.15232 C 214.5259,605.16232 213.5159,603.82232 212.3659,602.64232 C 212.3859,603.46232 212.4159,605.10232 212.4359,605.92232 C 212.1359,606.17232 211.5459,606.68232 211.2559,606.94232 C 210.8759,606.45232 210.1159,605.48232 209.7259,604.99232 C 209.6659,602.45232 210.0659,599.94232 211.0759,597.61232 C 212.9359,599.24232 214.5259,601.13232 216.2159,602.92232 C 217.3959,601.31232 217.5259,598.72232 219.5059,597.87232 C 221.5459,600.07232 222.6359,603.56232 226.0459,603.94232 z "
       style="fill:#747779" />
    <g
       transform="matrix(0.677088,0,0,0.677088,162.5367,184.8356)"
       id="g3421">
      <path
         style="fill:#747779"
         d="M 151.0496,598.8425 C 154.7796,601.9525 154.6196,607.0125 154.2796,611.4125 C 152.2096,614.1525 149.7696,619.2225 145.5496,617.3225 C 139.3496,614.0125 137.9696,603.7625 143.7196,599.3325 C 145.8596,598.0925 149.1696,596.2925 151.0496,598.8425 z "
         id="path3388" />
      <path
         style="fill:#f6f7f7"
         d="M 149.9196,600.6325 C 152.3096,603.6725 152.9096,607.6225 151.4396,611.2325 C 150.0196,610.7925 148.6896,608.9125 147.1096,609.7025 C 146.0596,611.0625 145.4496,612.6925 144.6596,614.2025 C 143.2996,611.3425 140.9596,607.8625 143.1396,604.7725 C 144.2496,601.9625 147.1096,600.8225 149.9196,600.6325 z "
         id="path3390" />
    </g>
    <g
       transform="matrix(0.693231,0,0,0.693231,158.1886,175.9824)"
       id="g3425">
      <path
         style="fill:#747779"
         d="M 131.1696,598.9125 C 134.1296,604.0725 131.2896,609.9025 128.8796,614.6525 C 126.9496,615.5125 124.9896,616.3125 123.0396,617.1525 C 118.3796,615.2125 117.4296,609.4425 118.5996,605.0425 C 119.8996,601.9525 122.0596,599.2525 124.3496,596.8425 C 126.7796,595.8625 129.9996,596.2625 131.1696,598.9125 z "
         id="path3396" />
      <path
         style="fill:#f6f7f7"
         d="M 127.2296,599.1325 C 131.8596,600.2025 130.0496,606.1925 128.8896,609.3825 C 126.9896,608.5825 124.9696,607.9325 123.3496,606.5925 C 121.8396,607.9725 121.0596,609.8425 120.3196,611.7025 C 119.2196,606.4325 122.7796,601.5225 127.2296,599.1325 z "
         id="path3400" />
    </g>
  </g>
</svg>
